<?xml version="1.0" encoding="UTF-8"?>
<svg width="154px" height="154px" viewBox="0 0 154 154" version="1.1" xmlns="http://www.w3.org/2000/svg" xmlns:xlink="http://www.w3.org/1999/xlink">
    <title>famous</title>
    <g id="Page-1" stroke="none" stroke-width="1" fill="none" fill-rule="evenodd">
        <g id="Landing-Page" transform="translate(-1123.000000, -2940.000000)" fill="#B57AD2" fill-rule="nonzero">
            <g id="Secret-Sauce" transform="translate(251.000000, 2730.000000)">
                <g id="3-Features" transform="translate(0.000000, 175.000000)">
                    <g id="Feature-3" transform="translate(799.000000, 35.000000)">
                        <g id="famous" transform="translate(73.000000, 0.000000)">
                            <rect id="Rectangle" x="74.4333333" y="15.4" width="5.13333333" height="10.2666667"></rect>
                            <rect id="Rectangle" transform="translate(105.233588, 27.166290) rotate(-45.000000) translate(-105.233588, -27.166290) " x="100.100303" y="24.5996477" width="10.2665682" height="5.1332841"></rect>
                            <rect id="Rectangle" x="130.9" y="148.866667" width="10.2666667" height="5.13333333"></rect>
                            <rect id="Rectangle" x="130.9" y="123.2" width="10.2666667" height="5.13333333"></rect>
                            <rect id="Rectangle" x="130.9" y="97.5333333" width="10.2666667" height="5.13333333"></rect>
                            <rect id="Rectangle" transform="translate(133.473028, 74.428147) rotate(-18.445820) translate(-133.473028, -74.428147) " x="128.33982" y="71.8615434" width="10.2664147" height="5.13320736"></rect>
                            <rect id="Rectangle" transform="translate(125.498609, 47.811495) rotate(-18.445820) translate(-125.498609, -47.811495) " x="120.365402" y="45.2448914" width="10.2664147" height="5.13320736"></rect>
                            <rect id="Rectangle" transform="translate(48.768274, 27.172398) rotate(-44.991897) translate(-48.768274, -27.172398) " x="46.2016319" y="22.0391142" width="5.13328416" height="10.2665683"></rect>
                            <rect id="Rectangle" x="12.8333333" y="148.866667" width="10.2666667" height="5.13333333"></rect>
                            <rect id="Rectangle" x="12.8333333" y="123.2" width="10.2666667" height="5.13333333"></rect>
                            <path d="M81.4856602,103 L73.5143398,103 C50.0720658,103 31,121.866454 31,145.057196 C31,147.234733 32.7844543,149 34.9856602,149 L120.01434,149 C122.215546,149 124,147.234466 124,145.056929 C124,121.866722 104.928475,103 81.4856602,103 Z" id="Path"></path>
                            <path d="M77,60 C63.2150109,60 52,71.3640945 52,85.3323306 L52,86.6676694 C52,100.635905 63.2150109,112 77,112 C90.7849891,112 102,100.635905 102,86.6676694 L102,85.3323306 C102,71.3640945 90.7849891,60 77,60 Z" id="Path"></path>
                            <rect id="Rectangle" x="12.8333333" y="97.5333333" width="10.2666667" height="5.13333333"></rect>
                            <rect id="Rectangle" transform="translate(20.532810, 74.428630) rotate(-71.572299) translate(-20.532810, -74.428630) " x="17.9662066" y="69.2954229" width="5.13320731" height="10.2664146"></rect>
                            <rect id="Rectangle" transform="translate(28.494964, 47.829541) rotate(-71.561428) translate(-28.494964, -47.829541) " x="25.9281978" y="42.6960092" width="5.13353194" height="10.2670639"></rect>
                            <path d="M151.433333,10.2666667 C147.182612,10.262175 143.737825,6.8173875 143.733333,2.56666667 C143.733333,1.149225 142.584108,0 141.166667,0 C139.749225,0 138.6,1.149225 138.6,2.56666667 C138.595508,6.8173875 135.150721,10.262175 130.9,10.2666667 C129.482558,10.2666667 128.333333,11.4158917 128.333333,12.8333333 C128.333333,14.250775 129.482558,15.4 130.9,15.4 C135.150721,15.4044917 138.595508,18.8492792 138.6,23.1 C138.6,24.5174417 139.749225,25.6666667 141.166667,25.6666667 C142.584108,25.6666667 143.733333,24.5174417 143.733333,23.1 C143.737825,18.8492792 147.182612,15.4044917 151.433333,15.4 C152.850775,15.4 154,14.250775 154,12.8333333 C154,11.4158917 152.850775,10.2666667 151.433333,10.2666667 Z M141.166667,15.4073792 C140.434204,14.4323667 139.567633,13.5657958 138.592621,12.8333333 C139.567633,12.1008708 140.434204,11.2343 141.166667,10.2592875 C141.899129,11.2343 142.7657,12.1008708 143.740712,12.8333333 C142.7657,13.5657958 141.899129,14.4323667 141.166667,15.4073792 Z" id="Shape"></path>
                            <path d="M23.1,10.2666667 C18.8492792,10.262175 15.4044917,6.8173875 15.4,2.56666667 C15.4,1.149225 14.250775,0 12.8333333,0 C11.4158917,0 10.2666667,1.149225 10.2666667,2.56666667 C10.262175,6.8173875 6.8173875,10.262175 2.56666667,10.2666667 C1.149225,10.2666667 0,11.4158917 0,12.8333333 C0,14.250775 1.149225,15.4 2.56666667,15.4 C6.8173875,15.4044917 10.262175,18.8492792 10.2666667,23.1 C10.2666667,24.5174417 11.4158917,25.6666667 12.8333333,25.6666667 C14.250775,25.6666667 15.4,24.5174417 15.4,23.1 C15.4044917,18.8492792 18.8492792,15.4044917 23.1,15.4 C24.5174417,15.4 25.6666667,14.250775 25.6666667,12.8333333 C25.6666667,11.4158917 24.5174417,10.2666667 23.1,10.2666667 Z M12.8333333,15.4073792 C12.1008708,14.4323667 11.2343,13.5657958 10.2592875,12.8333333 C11.2343,12.1008708 12.1008708,11.2343 12.8333333,10.2592875 C13.5657958,11.2343 14.4323667,12.1008708 15.4073792,12.8333333 C14.4323667,13.5657958 13.5657958,14.4323667 12.8333333,15.4073792 Z" id="Shape"></path>
                        </g>
                    </g>
                </g>
            </g>
        </g>
    </g>
</svg>