<?xml version="1.0" encoding="UTF-8"?>
<svg width="1093px" height="312px" viewBox="0 0 1093 312" version="1.1" xmlns="http://www.w3.org/2000/svg" xmlns:xlink="http://www.w3.org/1999/xlink">
    <title>Fill 5</title>
    <defs>
        <linearGradient x1="49.325979%" y1="0%" x2="49.325979%" y2="136.983809%" id="linearGradient-1">
            <stop stop-color="#B57AD2" stop-opacity="0.776387675" offset="0%"></stop>
            <stop stop-color="#FFF4E5" stop-opacity="0" offset="100%"></stop>
        </linearGradient>
        <path d="M1092,0 L0,0 L0,242.647717 C0,250.771203 13.280904,257.355969 29.663088,257.355969 L33.554976,257.355969 C49.93716,257.355969 63.218064,263.940735 63.218064,272.063138 C63.218064,277.318174 68.87244,282.172557 78.049608,284.799534 L166.187112,310.029768 C175.36428,312.656744 186.673032,312.656744 195.8502,310.029768 L283.987704,284.799534 C293.167056,282.172557 298.819248,277.318174 298.819248,272.063138 C298.819248,263.940735 312.100152,257.355969 328.482336,257.355969 L398.534136,257.355969 C414.918504,257.355969 428.199408,263.940735 428.199408,272.063138 C428.199408,277.318174 433.8516,282.172557 443.030952,284.799534 L531.168456,310.029768 C540.345624,312.656744 551.654376,312.656744 560.831544,310.029768 L648.969048,284.799534 C658.1484,282.172557 663.800592,277.318174 663.800592,272.063138 C663.800592,263.940735 677.08368,257.355969 693.465864,257.355969 L764.244936,257.355969 C780.62712,257.355969 793.908024,263.940735 793.908024,272.063138 C793.908024,277.318174 799.5624,282.172557 808.739568,284.799534 L896.877072,310.029768 C906.05424,312.656744 917.362992,312.656744 926.54016,310.029768 L1014.67766,284.799534 C1023.85702,282.172557 1029.51139,277.318174 1029.51139,272.063138 C1029.51139,263.940735 1042.79011,257.355969 1059.17448,257.355969 L1062.33691,257.355969 C1078.7191,257.355969 1092,250.771203 1092,242.647717 L1092,0 Z" id="path-2"></path>
    </defs>
    <g id="Page-1" stroke="none" stroke-width="1" fill="none" fill-rule="evenodd">
        <g id="Landing-Page" transform="translate(-253.000000, -2007.000000)">
            <g id="Process" transform="translate(253.509434, 1858.000000)">
                <g transform="translate(0.000000, 149.000000)" id="Fill-5">
                    <use fill="#F9F9F9" xlink:href="#path-2"></use>
                    <use fill="url(#linearGradient-1)" xlink:href="#path-2"></use>
                </g>
            </g>
        </g>
    </g>
</svg>