<?xml version="1.0" encoding="UTF-8"?>
<svg width="182px" height="201px" viewBox="0 0 182 201" version="1.1" xmlns="http://www.w3.org/2000/svg" xmlns:xlink="http://www.w3.org/1999/xlink">
    <title>Group 2</title>
    <g id="Page-1" stroke="none" stroke-width="1" fill="none" fill-rule="evenodd">
        <g id="Landing-Page" transform="translate(-343.000000, -2082.000000)">
            <g id="Process" transform="translate(254.509434, 1858.000000)">
                <g transform="translate(0.000000, 148.000000)" id="Group-14">
                    <g id="Group-2" transform="translate(88.490566, 76.000000)">
                        <path d="M181.180274,135.752573 L181.180274,64.5467202 C181.180274,54.2059921 175.664604,44.6521533 166.710085,39.4796095 L105.059236,3.87777304 C96.104717,-1.29259101 85.0733774,-1.29259101 76.1210377,3.87777304 L14.4701887,39.4796095 C5.51566981,44.6521533 0,54.2059921 0,64.5467202 L0,135.752573 C0,146.093301 5.51566981,155.649319 14.4701887,160.819684 L76.1210377,196.42152 C85.0733774,201.594064 96.104717,201.594064 105.059236,196.42152 L166.710085,160.819684 C175.664604,155.649319 181.180274,146.093301 181.180274,135.752573" id="Fill-11" fill="#B57AD2"></path>
                        <g id="process" transform="translate(29.000000, 39.000000)" fill-rule="nonzero">
                            <g id="Group" transform="translate(31.601942, 12.234719)" fill="#5A5A60">
                                <path d="M57.1911739,23.164401 L53.5053839,21.4107579 L55.2663725,17.7403423 L58.9521624,19.4939853 L57.1911739,23.164401 Z M49.7991174,19.6571149 L46.0723742,17.9034719 L47.8333628,14.2330562 L51.5191527,15.9866993 L49.7991174,19.6571149 Z M42.4070609,16.1498289 L38.7007944,14.3961858 L40.4617829,10.7257702 L44.1680494,12.4794132 L42.4070609,16.1498289 Z M35.0150044,12.6425428 L31.3087379,10.8888998 L33.0697264,7.21848411 L36.7759929,8.97212714 L35.0150044,12.6425428 Z M27.6434245,9.13525672 L23.937158,7.38161369 L25.5957635,3.71119804 L29.30203,5.46484108 L27.6434245,9.13525672 Z M20.251368,5.62797066 L16.5246249,3.87432763 L18.2856134,0.20391198 L21.99188,2.0391198 L20.251368,5.62797066 Z" id="Shape"></path>
                                <path d="M18.3879965,97.6330562 L16.3403354,94.0442054 L19.9237423,92.0050856 L21.9714034,95.5735452 L18.3879965,97.6330562 Z M25.5957635,93.799511 L23.5481024,90.1290954 L27.1519859,88.0899756 L29.199647,91.6584352 L25.5957635,93.799511 Z M32.7421006,89.7212714 L30.6944395,86.1528117 L34.2778464,84.1136919 L36.3255075,87.7025428 L32.7421006,89.7212714 Z M39.929391,85.8265526 L37.8817299,82.2580929 L41.4856134,80.2189731 L43.5332745,83.7874328 L39.929391,85.8265526 Z M47.0962048,81.9114425 L45.0485437,78.3225917 L48.6319506,76.2834719 L50.6796117,79.8519315 L47.0962048,81.9114425 Z M54.2630185,77.9759413 L52.2153575,74.4074817 L55.7987643,72.3683619 L57.8464254,75.9368215 L54.2630185,77.9759413 Z" id="Shape"></path>
                                <polygon id="Path" points="29.7154016 54.6091577 31.4758782 50.9270171 35.1734422 52.6801504 33.4129656 56.362291"></polygon>
                                <polygon id="Path" points="0.139752868 40.5784841 1.90022948 36.8963435 5.59779347 38.6494768 3.83731686 42.3316174"></polygon>
                                <polygon id="Path" points="7.54153575 44.0855153 9.30201236 40.4033747 12.9995763 42.1565079 11.2390997 45.8386485"></polygon>
                                <polygon id="Path" points="37.1174404 58.1164438 38.877917 54.4343032 42.575481 56.1874364 40.8150044 59.869577"></polygon>
                                <polygon id="Path" points="37.3925949 38.9229737 40.980609 36.9570073 42.9548102 40.530055 39.3667961 42.4960214"></polygon>
                                <polygon id="Path" points="1.51168579 58.5632659 5.09969991 56.5972995 7.07390115 60.1703472 3.48588703 62.1363136"></polygon>
                                <polygon id="Path" points="18.7360989 49.1427873 20.3947043 45.6762836 16.6884378 43.9226406 14.9274492 47.5930562 18.4903795 49.2855257 15.8693733 50.7129095 17.835128 54.2813692 21.4390115 52.3238142 19.4527802 48.7553545"></polygon>
                                <polygon id="Path" points="30.2337158 42.8549065 33.8217299 40.8889401 35.7959312 44.4619878 32.207917 46.4279542"></polygon>
                                <polygon id="Path" points="8.67696381 54.6573319 12.2657458 52.69264 14.2386673 56.2664523 10.6498853 58.2311443"></polygon>
                                <polygon id="Path" points="26.6400706 44.8198533 23.0566637 46.7774083 23.7733451 48.082445 22.3195057 51.1003423 26.0257723 52.8539853 27.7867608 49.1835697 27.459135 49.0204401 28.6058252 48.388313"></polygon>
                            </g>
                            <path d="M48.7485437,21.5738875 L48.5650485,20.0649389 L41.9184466,18.841467 C41.6189927,17.8988839 41.236966,16.9845935 40.776699,16.1090465 L44.6097087,10.5422494 L43.692233,9.3595599 C42.4977306,7.84500367 41.1289078,6.47598961 39.6145631,5.28132029 L38.4320388,4.36371638 L32.8252427,8.15647922 C31.949818,7.69614792 31.0356553,7.31406785 30.0932039,7.01457213 L28.8699029,0.367041565 L27.361165,0.183520782 C25.4387985,-0.0611735941 23.4932403,-0.0611735941 21.5708738,0.183520782 L20.0621359,0.367041565 L18.838835,7.01457213 C17.8963835,7.31406785 16.9822209,7.69614792 16.1067961,8.15647922 L10.5407767,4.32293399 L9.35825243,5.2405379 C7.84390777,6.43520721 6.47508495,7.80422127 5.28058252,9.31877751 L4.3631068,10.501467 L8.15533981,16.1090465 C7.69507282,16.9845935 7.31304612,17.8988839 7.01359223,18.841467 L0.366990291,20.0649389 L0.183495146,21.5738875 C-0.0611650485,23.4965226 -0.0611650485,25.4423527 0.183495146,27.3649878 L0.366990291,28.8739364 L7.01359223,30.0974083 C7.31304612,31.0399914 7.69507282,31.9542818 8.15533981,32.8298289 L4.3223301,38.3966259 L5.23980583,39.5793154 C6.43430825,41.0938716 7.80313107,42.4628857 9.31747573,43.657555 L10.5,44.5751589 L16.1067961,40.7823961 C16.9822209,41.2427274 17.8963835,41.6248075 18.838835,41.9243032 L20.0621359,48.5718337 L21.5708738,48.7553545 C23.4932403,49.0000489 25.4387985,49.0000489 27.361165,48.7553545 L28.8699029,48.5718337 L30.0932039,41.9243032 C31.0356553,41.6248075 31.949818,41.2427274 32.8252427,40.7823961 L38.3912621,44.6159413 L39.5737864,43.6983374 C41.0881311,42.5036681 42.4569539,41.134654 43.6514563,39.6200978 L44.568932,38.4374083 L40.776699,32.8298289 C41.236966,31.9542818 41.6189927,31.0399914 41.9184466,30.0974083 L48.5650485,28.8739364 L48.7485437,27.3649878 C48.9932039,25.4423527 48.9932039,23.4965226 48.7485437,21.5738875 L48.7485437,21.5738875 Z M30.5825243,24.4694377 C30.5825243,27.8480043 27.8441141,30.5867971 24.4660194,30.5867971 C21.0879248,30.5867971 18.3495146,27.8480043 18.3495146,24.4694377 C18.3495146,21.090871 21.0879248,18.3520782 24.4660194,18.3520782 C27.8441141,18.3520782 30.5825243,21.090871 30.5825243,24.4694377 Z" id="Shape" fill="#FFFFFF"></path>
                            <path d="M122.146602,58.278044 L121.963107,56.7690954 L115.316505,55.5456235 C115.017051,54.6030403 114.635024,53.68875 114.174757,52.8132029 L118.007767,47.2464059 L117.090291,46.0637164 C115.895789,44.5491601 114.526966,43.1801461 113.012621,41.9854768 L111.830097,41.0678729 L106.223301,44.8606357 C105.347876,44.4003044 104.433714,44.0182243 103.491262,43.7187286 L102.267961,37.071198 L100.759223,36.8876773 C98.8368568,36.6429829 96.8912985,36.6429829 94.968932,36.8876773 L93.4601942,37.071198 L92.2368932,43.7187286 C91.2944417,44.0182243 90.3802791,44.4003044 89.5048544,44.8606357 L83.938835,41.0270905 L82.7563107,41.9446944 C81.241966,43.1393637 79.8731432,44.5083778 78.6786408,46.022934 L77.761165,47.2056235 L81.5533981,52.8132029 C81.0931311,53.68875 80.7111044,54.6030403 80.4116505,55.5456235 L73.7650485,56.7690954 L73.5815534,58.278044 C73.3368932,60.2006791 73.3368932,62.1465092 73.5815534,64.0691443 L73.7650485,65.5780929 L80.4116505,66.8015648 C80.7111044,67.7441479 81.0931311,68.6584383 81.5533981,69.5339853 L77.7203883,75.1007824 L78.6378641,76.2834719 C79.8323665,77.7980281 81.2011893,79.1670422 82.715534,80.3617115 L83.8980583,81.2793154 L89.5048544,77.4865526 C90.3802791,77.9468839 91.2944417,78.3289639 92.2368932,78.6284597 L93.4601942,85.2759902 L94.968932,85.459511 C96.8912985,85.7042054 98.8368568,85.7042054 100.759223,85.459511 L102.267961,85.2759902 L103.491262,78.6284597 C104.433714,78.3289639 105.347876,77.9468839 106.223301,77.4865526 L111.78932,81.3200978 L112.971845,80.4024939 C114.486189,79.2078246 115.855012,77.8388105 117.049515,76.3242543 L117.96699,75.1415648 L114.174757,69.5339853 C114.635024,68.6584383 115.017051,67.7441479 115.316505,66.8015648 L121.963107,65.5780929 L122.146602,64.0691443 C122.391262,62.1465092 122.391262,60.2006791 122.146602,58.278044 L122.146602,58.278044 Z M103.980583,61.1735941 C103.980583,64.5521608 101.242172,67.2909535 97.8640777,67.2909535 C94.485983,67.2909535 91.7475728,64.5521608 91.7475728,61.1735941 C91.7475728,57.7950275 94.485983,55.0562347 97.8640777,55.0562347 C101.242172,55.0562347 103.980583,57.7950275 103.980583,61.1735941 Z" id="Shape" fill="#FFFFFF"></path>
                            <path d="M48.7485437,94.9822005 L48.5650485,93.4732518 L41.9184466,92.24978 C41.6189927,91.3071968 41.236966,90.3929065 40.776699,89.5173594 L44.6097087,83.9505623 L43.692233,82.7678729 C42.4977306,81.2533166 41.1289078,79.8843026 39.6145631,78.6896333 L38.4320388,77.7720293 L32.8252427,81.5647922 C31.949818,81.1044609 31.0356553,80.7223808 30.0932039,80.4228851 L28.8699029,73.7753545 L27.361165,73.5918337 C25.4387985,73.3471394 23.4932403,73.3471394 21.5708738,73.5918337 L20.0621359,73.7753545 L18.838835,80.4228851 C17.8963835,80.7223808 16.9822209,81.1044609 16.1067961,81.5647922 L10.5407767,77.7312469 L9.35825243,78.6488509 C7.84390777,79.8435202 6.47508495,81.2125342 5.28058252,82.7270905 L4.3631068,83.90978 L8.15533981,89.5173594 C7.69507282,90.3929065 7.31304612,91.3071968 7.01359223,92.24978 L0.366990291,93.4732518 L0.183495146,94.9822005 C-0.0611650485,96.9048356 -0.0611650485,98.8506656 0.183495146,100.773301 L0.366990291,102.282249 L7.01359223,103.505721 C7.31304612,104.448304 7.69507282,105.362595 8.15533981,106.238142 L4.3223301,111.804939 L5.23980583,112.987628 C6.43430825,114.502185 7.80313107,115.871199 9.31747573,117.065868 L10.5,117.983472 L16.1067961,114.190709 C16.9822209,114.65104 17.8963835,115.03312 18.838835,115.332616 L20.0621359,121.980147 L21.5708738,122.163667 C23.4932403,122.408362 25.4387985,122.408362 27.361165,122.163667 L28.8699029,121.980147 L30.0932039,115.332616 C31.0356553,115.03312 31.949818,114.65104 32.8252427,114.190709 L38.3912621,118.024254 L39.5737864,117.10665 C41.0881311,115.911981 42.4569539,114.542967 43.6514563,113.028411 L44.568932,111.845721 L40.776699,106.238142 C41.236966,105.362595 41.6189927,104.448304 41.9184466,103.505721 L48.5650485,102.282249 L48.7485437,100.773301 C48.9932039,98.8506656 48.9932039,96.9048356 48.7485437,94.9822005 L48.7485437,94.9822005 Z M30.5825243,97.8777506 C30.5825243,101.256317 27.8441141,103.99511 24.4660194,103.99511 C21.0879248,103.99511 18.3495146,101.256317 18.3495146,97.8777506 C18.3495146,94.499184 21.0879248,91.7603912 24.4660194,91.7603912 C27.8441141,91.7603912 30.5825243,94.499184 30.5825243,97.8777506 Z" id="Shape" fill="#FFFFFF"></path>
                        </g>
                    </g>
                </g>
            </g>
        </g>
    </g>
</svg>