<?xml version="1.0" encoding="UTF-8"?>
<svg width="182px" height="201px" viewBox="0 0 182 201" version="1.1" xmlns="http://www.w3.org/2000/svg" xmlns:xlink="http://www.w3.org/1999/xlink">
    <title>Group 5</title>
    <g id="Page-1" stroke="none" stroke-width="1" fill="none" fill-rule="evenodd">
        <g id="Landing-Page" transform="translate(-708.000000, -2083.000000)">
            <g id="Process" transform="translate(254.509434, 1858.000000)">
                <g transform="translate(0.000000, 148.000000)" id="Group-14">
                    <g id="Group-5" transform="translate(453.490566, 77.000000)">
                        <path d="M181.180274,135.752573 L181.180274,64.5467202 C181.180274,54.2059921 175.664604,44.6521533 166.710085,39.4796095 L105.059236,3.87777304 C96.104717,-1.29259101 85.0733774,-1.29259101 76.1210377,3.87777304 L14.4680094,39.4796095 C5.51566981,44.6521533 0,54.2059921 0,64.5467202 L0,135.752573 C0,146.093301 5.51566981,155.649319 14.4680094,160.819684 L76.1210377,196.42152 C85.0733774,201.594064 96.104717,201.594064 105.059236,196.42152 L166.710085,160.819684 C175.664604,155.649319 181.180274,146.093301 181.180274,135.752573" id="Fill-7" fill="#3490CF"></path>
                        <g id="working-time" transform="translate(20.000000, 39.000000)" fill-rule="nonzero">
                            <path d="M77.9147344,23.7969308 C76.7429397,23.7969308 75.7935335,22.84725 75.7935335,21.6757299 L75.7935335,8.25692411 C75.7935335,6.05088616 73.9987768,4.25612946 71.7924643,4.25612946 L42.9920692,4.25612946 C40.7857567,4.25612946 38.991,6.05088616 38.991,8.25692411 L38.991,21.6757299 C38.991,22.8475246 38.0413192,23.7969308 36.8697991,23.7969308 C35.6980045,23.7969308 34.7485982,22.84725 34.7485982,21.6757299 L34.7485982,8.25692411 C34.7485982,3.71141518 38.4468348,0.013453125 42.9923437,0.013453125 L71.7924643,0.013453125 C76.3379732,0.013453125 80.0362098,3.71141518 80.0362098,8.25692411 L80.0362098,21.6757299 C80.0362098,22.84725 79.086529,23.7969308 77.9147344,23.7969308 L77.9147344,23.7969308 Z" id="Path" fill="#2B4D66"></path>
                            <path d="M107.311185,87.6992746 L15.5427522,87.6992746 C11.0861987,87.6992746 7.47334821,84.0864241 7.47334821,79.6298705 L7.47334821,32.3844174 L107.311185,32.3844174 L107.311185,87.6992746 Z" id="Path" fill="#FFFFFF"></path>
                            <path d="M7.47334821,56.7194732 C8.79312723,58.0735714 10.6279688,58.8983304 12.6236987,58.8983304 L107.311185,58.8983304 L107.311185,32.3844174 L7.47334821,32.3844174 L7.47334821,56.7194732 Z" id="Path" fill="#B57AD2"></path>
                            <path d="M108.008002,16.0188281 L6.7768058,16.0188281 C2.41524777,16.0188281 -0.809383929,20.0805737 0.179558036,24.3284665 L5.6154442,47.6773259 C6.37403571,50.9357277 9.27826339,53.2414286 12.6239732,53.2414286 L107.87402,53.2414286 L114.60525,24.328192 C115.594192,20.0805737 112.369286,16.0188281 108.008002,16.0188281 L108.008002,16.0188281 Z" id="Path" fill="#FFFFFF"></path>
                            <path d="M108.008002,16.0188281 L100.79548,16.0188281 C105.157038,16.0188281 108.38167,20.0805737 107.392728,24.3284665 L100.661498,53.2417031 L107.87402,53.2417031 L114.60525,24.3284665 C115.594192,20.0805737 112.369286,16.0188281 108.008002,16.0188281 Z" id="Path" fill="#B57AD2"></path>
                            <circle id="Oval" fill="#B57AD2" cx="102.934252" cy="85.3493705" r="37.6371763"></circle>
                            <path d="M102.934252,47.7121942 C101.936525,47.7121942 100.947857,47.7517299 99.9696228,47.8280558 C119.370127,49.3397478 134.64217,65.5606473 134.64217,85.3493705 C134.64217,105.138094 119.370127,121.358993 99.9696228,122.87096 C100.947857,122.947286 101.93625,122.986821 102.934252,122.986821 C123.720703,122.986821 140.571429,106.136096 140.571429,85.3496451 C140.571429,64.5631942 123.720703,47.7121942 102.934252,47.7121942 L102.934252,47.7121942 Z" id="Path" fill="#B57AD2"></path>
                            <circle id="Oval" fill="#F4FBFF" cx="102.934252" cy="85.3493705" r="28.0733772"></circle>
                            <path d="M102.934252,57.2762679 C101.633417,57.2762679 100.353998,57.366596 99.1001116,57.5379174 C112.790451,59.4079018 123.339348,71.1458906 123.339348,85.3493705 C123.339348,99.5528504 112.790451,111.291114 99.1001116,113.161098 C100.353998,113.33242 101.633417,113.422748 102.934252,113.422748 C118.438567,113.422748 131.007629,100.85396 131.007629,85.3493705 C131.007629,69.8450558 118.438567,57.2762679 102.934252,57.2762679 L102.934252,57.2762679 Z" id="Path" fill="#DAF1F4"></path>
                            <g id="Group" transform="translate(80.169643, 62.598214)" fill="#365E7D">
                                <path d="M22.7646094,5.43890625 C21.5928147,5.43890625 20.6434085,4.48922545 20.6434085,3.31770536 L20.6434085,2.34633482 C20.6434085,1.17454018 21.5930893,0.225133929 22.7646094,0.225133929 C23.9361295,0.225133929 24.8858103,1.17481473 24.8858103,2.34633482 L24.8858103,3.31770536 C24.8858103,4.48922545 23.936404,5.43890625 22.7646094,5.43890625 Z" id="Path"></path>
                                <path d="M36.5060156,11.1309509 C35.9632232,11.1309509 35.4201563,10.9236629 35.0058549,10.5096362 C34.1775268,9.68103348 34.1775268,8.33819196 35.0058549,7.50931473 L35.6930625,6.82210714 C36.5216652,5.99405357 37.8645067,5.99405357 38.6933839,6.82210714 C39.5217121,7.65070982 39.5217121,8.99355134 38.6933839,9.82242857 L38.0061763,10.5096362 C37.591875,10.9239375 37.048808,11.1309509 36.5060156,11.1309509 Z" id="Path"></path>
                                <path d="M43.1697054,24.8726317 L42.1980603,24.8726317 C41.0262656,24.8726317 40.0768594,23.9229509 40.0768594,22.7514308 C40.0768594,21.5799107 41.0265402,20.6302299 42.1980603,20.6302299 L43.1697054,20.6302299 C44.3415,20.6302299 45.2909063,21.5799107 45.2909063,22.7514308 C45.2909063,23.9229509 44.3415,24.8726317 43.1697054,24.8726317 Z" id="Path"></path>
                                <path d="M3.33088393,24.8726317 L2.35923884,24.8726317 C1.1874442,24.8726317 0.238037946,23.9229509 0.238037946,22.7514308 C0.238037946,21.5799107 1.18771875,20.6302299 2.35923884,20.6302299 L3.33088393,20.6302299 C4.50267857,20.6302299 5.45208482,21.5799107 5.45208482,22.7514308 C5.45208482,23.9229509 4.50267857,24.8726317 3.33088393,24.8726317 Z" id="Path"></path>
                                <path d="M37.1932232,39.3012455 C36.6504308,39.3012455 36.1076384,39.0942321 35.6936116,38.6802054 L35.006404,37.9932723 C34.1778013,37.1649442 34.1775268,35.8218281 35.0055804,34.9932254 C35.8339085,34.1640737 37.1770246,34.1640737 38.0056272,34.9924018 L38.6928348,35.6793348 C39.5214375,36.5076629 39.5217121,37.850779 38.6936585,38.6793817 C38.2793571,39.0939576 37.7362902,39.3012455 37.1932232,39.3012455 L37.1932232,39.3012455 Z" id="Path"></path>
                                <path d="M22.7646094,45.2780022 C21.5928147,45.2780022 20.6434085,44.3283214 20.6434085,43.1568013 L20.6434085,42.1851563 C20.6434085,41.0133616 21.5930893,40.0639554 22.7646094,40.0639554 C23.9361295,40.0639554 24.8858103,41.0136362 24.8858103,42.1851563 L24.8858103,43.1568013 C24.8858103,44.3283214 23.936404,45.2780022 22.7646094,45.2780022 Z" id="Path"></path>
                                <path d="M8.33599554,39.3012455 C7.79320313,39.3012455 7.25013616,39.0939576 6.83583482,38.6799308 C6.0075067,37.8513281 6.0075067,36.5084866 6.83583482,35.6796094 L7.52276786,34.9926763 C8.35137054,34.1646228 9.69421205,34.1646228 10.5230893,34.9926763 C11.3514174,35.821279 11.3514174,37.1641205 10.5230893,37.9929978 L9.83615625,38.6799308 C9.42185491,39.0939576 8.87878795,39.3012455 8.33599554,39.3012455 Z" id="Path"></path>
                                <path d="M9.02292857,11.1309509 C8.47986161,11.1309509 7.93679464,10.9236629 7.5224933,10.5090871 L6.83556027,9.82187946 C6.0075067,8.99355134 6.00778125,7.65043527 6.83638393,6.82183259 C7.6644375,5.99432812 9.00755357,5.99350446 9.8364308,6.82265625 L10.5233638,7.50986384 C11.3514174,8.33819196 11.3511429,9.68130804 10.5225402,10.5099107 C10.1085134,10.9239375 9.56572098,11.1309509 9.02292857,11.1309509 L9.02292857,11.1309509 Z" id="Path"></path>
                            </g>
                            <path d="M108.716076,87.470846 L102.934252,87.470846 C101.762458,87.470846 100.813051,86.5211652 100.813051,85.3496451 L100.813051,74.153625 C100.813051,72.9818304 101.762732,72.0324241 102.934252,72.0324241 C104.105772,72.0324241 105.055453,72.9821049 105.055453,74.153625 L105.055453,83.2281696 L108.716076,83.2281696 C109.887871,83.2281696 110.837277,84.1778504 110.837277,85.3493705 C110.837277,86.5208906 109.887871,87.470846 108.716076,87.470846 Z" id="Path" fill="#2B4D66"></path>
                            <path d="M63.2596138,60.9445781 L51.5249196,60.9445781 C49.7875446,60.9445781 48.3788103,59.5361183 48.3788103,57.7984688 L48.3788103,48.6599531 C48.3788103,46.9225781 49.7872701,45.5138438 51.5249196,45.5138438 L63.2596138,45.5138438 C64.9969888,45.5138438 66.4057232,46.9223036 66.4057232,48.6599531 L66.4057232,57.7984688 C66.4057232,59.5361183 64.9969888,60.9445781 63.2596138,60.9445781 Z" id="Path" fill="#B57AD2"></path>
                            <path d="M63.2596138,45.5138438 L57.8660089,45.5138438 C59.6033839,45.5138438 61.0121183,46.9223036 61.0121183,48.6599531 L61.0121183,57.7984688 C61.0121183,59.5358438 59.6036585,60.9445781 57.8660089,60.9445781 L63.2596138,60.9445781 C64.9969888,60.9445781 66.4057232,59.5361183 66.4057232,57.7984688 L66.4057232,48.6599531 C66.4057232,46.9225781 64.9969888,45.5138438 63.2596138,45.5138438 Z" id="Path" fill="#D1B4E0"></path>
                        </g>
                    </g>
                </g>
            </g>
        </g>
    </g>
</svg>