<?xml version="1.0" encoding="UTF-8"?>
<svg width="182px" height="201px" viewBox="0 0 182 201" version="1.1" xmlns="http://www.w3.org/2000/svg" xmlns:xlink="http://www.w3.org/1999/xlink">
    <title>Group 7</title>
    <g id="Page-1" stroke="none" stroke-width="1" fill="none" fill-rule="evenodd">
        <g id="Landing-Page" transform="translate(-1073.000000, -2083.000000)">
            <g id="Process" transform="translate(254.509434, 1858.000000)">
                <g transform="translate(0.000000, 148.000000)" id="Group-14">
                    <g id="Group-7" transform="translate(818.490566, 77.000000)">
                        <path d="M181.180274,135.752573 L181.180274,64.5467202 C181.180274,54.2059921 175.664604,44.6521533 166.710085,39.4796095 L105.059236,3.87777304 C96.1068962,-1.29259101 85.0733774,-1.29259101 76.1210377,3.87777304 L14.4701887,39.4796095 C5.51784906,44.6521533 0,54.2059921 0,64.5467202 L0,135.752573 C0,146.093301 5.51784906,155.649319 14.4701887,160.819684 L76.1210377,196.42152 C85.0733774,201.594064 96.1068962,201.594064 105.059236,196.42152 L166.710085,160.819684 C175.664604,155.649319 181.180274,146.093301 181.180274,135.752573" id="Fill-9" fill="#B57AD2"></path>
                        <g id="trustworthy" transform="translate(36.000000, 39.000000)" fill-rule="nonzero">
                            <g id="Group" transform="translate(1.952381, 1.952381)" fill="#FFFFFF">
                                <path d="M46.8571429,93.7142857 C53.8466667,93.7142857 59.7428571,89.1261905 61.7538095,82.8004762 C63.1985714,83.542381 64.7214286,84.0695238 66.3028571,84.3233333 L66.3028571,84.3428571 L74.1904762,109.333333 L60.5238095,107.380952 L50.7619048,117.142857 L46.8571429,104.452381 L43.4404762,93.3433333 L43.4404762,93.3238095 C44.5338095,93.577619 45.6857143,93.7142857 46.8571429,93.7142857 L46.8571429,93.7142857 Z" id="Path"></path>
                                <path d="M33.1904762,107.380952 L19.5238095,109.333333 L27.4114286,84.3428571 L27.4114286,84.3233333 C28.9928571,84.0695238 30.5157143,83.542381 31.9604762,82.8004762 C33.6395238,88.0719048 37.9933333,92.1328571 43.4404762,93.3238095 L43.4404762,93.3433333 L46.8571429,104.452381 L42.952381,117.142857 L33.1904762,107.380952 Z" id="Path"></path>
                                <path d="M74.9714286,60.5238095 C71.9842857,55.7404762 70.2857143,50.117619 70.2857143,44.182381 L70.2857143,31.2380952 L73.9171429,31.2380952 L74.8542857,31.2380952 C77.9195238,31.2380952 80.9261905,30.7109524 83.7571429,29.7152381 C85.5728571,24.2680952 84.3233333,18.04 79.9890476,13.7252381 C75.0495238,8.78571429 67.6304762,7.84857143 61.7538095,10.9138095 C59.7428571,4.58809524 53.8466667,6.93625052e-15 46.8571429,6.93625052e-15 C39.867619,6.93625052e-15 33.9714286,4.58809524 31.9604762,10.9138095 C26.0838095,7.84857143 18.6647619,8.78571429 13.7252381,13.7252381 C8.78571429,18.6647619 7.84857143,26.0838095 10.9138095,31.9604762 C4.58809524,33.9714286 -3.46812526e-15,39.867619 -3.46812526e-15,46.8571429 C-3.46812526e-15,53.8466667 4.58809524,59.7428571 10.9138095,61.7538095 C7.84857143,67.6304762 8.78571429,75.0495238 13.7252381,79.9890476 C17.4542857,83.7180952 22.5890476,85.1628571 27.4114286,84.3233333 C28.9928571,84.0695238 30.5157143,83.542381 31.9604762,82.8004762 C33.6395238,88.0719048 37.9933333,92.1328571 43.4404762,93.3238095 C44.5338095,93.577619 45.6857143,93.7142857 46.8571429,93.7142857 C53.8466667,93.7142857 59.7428571,89.1261905 61.7538095,82.8004762 C63.1985714,83.542381 64.7214286,84.0695238 66.3028571,84.3233333 C71.1252381,85.1628571 76.26,83.7180952 79.9890476,79.9890476 C82.722381,77.2557143 84.2257143,73.7804762 84.5185714,70.2271429 C80.6333333,67.7280952 77.3728571,64.4090476 74.9714286,60.5238095 Z" id="Path"></path>
                                <path d="M42.6204762,51.757619 L41,56.6190476 L35.7090476,57.3804762 C35.67,57.3804762 35.6504762,57.3804762 35.6114286,57.4 C30.847619,58.122381 27.3333333,62.222381 27.3333333,67.0447619 L27.3333333,71.242381 C20.187619,65.5219048 15.6190476,56.7361905 15.6190476,46.8571429 C15.6190476,29.5980952 29.5980952,15.6190476 46.8571429,15.6190476 C58.4152381,15.6190476 68.5090476,21.9057143 73.9171429,31.2380952 L70.2857143,31.2380952 L70.2857143,44.182381 C70.2857143,50.117619 71.9842857,55.7404762 74.9714286,60.5238095 L74.9519048,60.5238095 C72.9214286,64.7019048 69.9733333,68.372381 66.3809524,71.2228571 L66.3809524,67.0447619 C66.3809524,62.222381 62.8666667,58.122381 58.1028571,57.4 C58.0638095,57.3804762 58.0442857,57.3804762 58.0052381,57.3804762 L52.7142857,56.6190476 L51.0938095,51.757619 C53.807619,50.43 55.8185714,47.9309524 56.4238095,44.9047619 L58.3761905,42.1128571 C59.7819048,40.1214286 60.5238095,37.7395238 60.5238095,35.2990476 C60.5238095,32.0190476 59.1961905,29.0514286 57.0485714,26.9038095 C54.9009524,24.7561905 51.9333333,23.4285714 48.6533333,23.4285714 L45.0609524,23.4285714 C38.5009524,23.4285714 33.1904762,28.7390476 33.1904762,35.2990476 C33.1904762,37.7395238 33.932381,40.1214286 35.3380952,42.1128571 L37.2904762,44.9047619 C37.6809524,46.8180952 38.6180952,48.5361905 39.9457143,49.8638095 L42.6204762,51.757619 Z" id="Path"></path>
                                <path d="M58.3761905,42.1128571 L56.4238095,44.9047619 C56.5604762,44.28 56.6190476,43.6161905 56.6190476,42.952381 L56.6190476,40.3947619 C56.6190476,38.5009524 55.2328571,36.8609524 53.3585714,36.5485714 L49.5514286,35.9238095 C47.9309524,35.6504762 46.4861905,34.8890476 45.3733333,33.7761905 L45.3538095,33.7957143 L40.7852381,35.6309524 C38.5595238,36.5095238 37.0952381,38.6571429 37.0952381,41.0585714 L37.0952381,42.952381 C37.0952381,43.6161905 37.1538095,44.28 37.2904762,44.9047619 L35.3380952,42.1128571 C33.932381,40.1214286 33.1904762,37.7395238 33.1904762,35.2990476 C33.1904762,28.7390476 38.5009524,23.4285714 45.0609524,23.4285714 L48.6533333,23.4285714 C51.9333333,23.4285714 54.9009524,24.7561905 57.0485714,26.9038095 C59.1961905,29.0514286 60.5238095,32.0190476 60.5238095,35.2990476 C60.5238095,37.7395238 59.7819048,40.1214286 58.3761905,42.1128571 L58.3761905,42.1128571 Z" id="Path"></path>
                                <path d="M66.3809524,67.0447619 L66.3809524,71.2228571 C61.0314286,75.537619 54.2566667,78.0952381 46.8571429,78.0952381 C39.4771429,78.0952381 32.6828571,75.537619 27.3333333,71.242381 L27.3333333,67.0447619 C27.3333333,62.222381 30.847619,58.122381 35.6114286,57.4 L41,66.3809524 L46.8571429,60.5238095 L52.7142857,66.3809524 L58.1028571,57.4 C62.8666667,58.122381 66.3809524,62.222381 66.3809524,67.0447619 Z" id="Path"></path>
                                <path d="M41,56.6190476 L46.8571429,60.5238095 L41,66.3809524 L35.6114286,57.4 C35.6504762,57.3804762 35.67,57.3804762 35.7090476,57.3804762 L41,56.6190476 Z" id="Path"></path>
                                <path d="M58.1028571,57.4 L52.7142857,66.3809524 L46.8571429,60.5238095 L52.7142857,56.6190476 L58.0052381,57.3804762 C58.0442857,57.3804762 58.0638095,57.3804762 58.1028571,57.4 L58.1028571,57.4 Z" id="Path"></path>
                                <path d="M46.8571429,52.7142857 C48.38,52.7142857 49.8247619,52.3628571 51.0938095,51.757619 L52.7142857,56.6190476 L46.8571429,60.5238095 L41,56.6190476 L42.6204762,51.757619 L46.8571429,52.7142857 Z" id="Path"></path>
                                <path d="M56.4238095,44.9047619 C55.8185714,47.9309524 53.807619,50.43 51.0938095,51.757619 C49.8247619,52.3628571 48.38,52.7142857 46.8571429,52.7142857 L42.6204762,51.757619 L39.9457143,49.8638095 C38.6180952,48.5361905 37.6809524,46.8180952 37.2904762,44.9047619 C37.1538095,44.28 37.0952381,43.6161905 37.0952381,42.952381 L37.0952381,41.0585714 C37.0952381,38.6571429 38.5595238,36.5095238 40.7852381,35.6309524 L45.3538095,33.7957143 L45.3733333,33.7761905 C46.4861905,34.8890476 47.9309524,35.6504762 49.5514286,35.9238095 L53.3585714,36.5485714 C55.2328571,36.8609524 56.6190476,38.5009524 56.6190476,40.3947619 L56.6190476,42.952381 C56.6190476,43.6161905 56.5604762,44.28 56.4238095,44.9047619 L56.4238095,44.9047619 Z" id="Path"></path>
                                <path d="M117.142857,31.2380952 L117.142857,44.182381 C117.142857,51.2695238 114.721905,57.9271429 110.582857,63.2180952 C106.44381,68.5285714 100.586667,72.472381 93.7142857,74.1904762 C90.3757143,73.3509524 87.2909524,72.0038095 84.5185714,70.2271429 C80.6333333,67.7280952 77.3728571,64.4090476 74.9714286,60.5238095 C71.9842857,55.7404762 70.2857143,50.117619 70.2857143,44.182381 L70.2857143,31.2380952 L73.9171429,31.2380952 L74.8542857,31.2380952 C77.9195238,31.2380952 80.9261905,30.7109524 83.7571429,29.7152381 C87.4666667,28.387619 90.8833333,26.2595238 93.7142857,23.4285714 C98.712381,28.4266667 105.487143,31.2380952 112.574286,31.2380952 L117.142857,31.2380952 Z" id="Path"></path>
                            </g>
                            <g id="Group" fill="#3490CF">
                                <path d="M114.52081,31.2380952 C107.91981,31.2380952 101.715143,28.6687619 97.047,24.000619 L95.6666667,22.6202857 L94.2863333,24.000619 C92.511619,25.7753333 90.512381,27.2415714 88.3569524,28.3837143 C88.8606667,23.2255238 87.1015714,18.0731905 83.3237143,14.2953333 C78.3978571,9.36947619 71.1740476,7.85833333 64.7839048,10.2441429 C61.9529524,4.03752381 55.7775714,-1.73406263e-15 48.8095238,-1.73406263e-15 C41.8414762,-1.73406263e-15 35.6660952,4.03752381 32.8351429,10.2441429 C26.4469524,7.85638095 19.2250952,9.36752381 14.2953333,14.2953333 C9.36947619,19.2211905 7.85833333,26.445 10.2441429,32.8351429 C4.03752381,35.6660952 -3.29471899e-14,41.8414762 -3.29471899e-14,48.8095238 C-3.29471899e-14,55.7775714 4.03752381,61.9529524 10.2441429,64.7839048 C7.85833333,71.1740476 9.36947619,78.3978571 14.2953333,83.3237143 C17.6690476,86.6974286 22.1204762,88.4272381 26.6421905,88.4428571 L18.680381,113.657857 L34.4536667,111.40481 L45.8184762,122.769619 L48.8095238,113.042857 L51.8025238,122.769619 L63.1673333,111.40481 L78.940619,113.657857 L70.9768571,88.4409048 C75.4985714,88.4252857 79.95,86.6974286 83.3237143,83.3237143 C85.5630952,81.0843333 87.1386667,78.2885238 87.9157143,75.2545238 C90.1882857,76.4415714 92.6170476,77.392381 95.1941905,78.0347143 L95.6666667,78.1538095 L96.1410952,78.0347143 C110.805429,74.3720476 121.047619,61.254 121.047619,46.1367143 L121.047619,31.2380952 L114.52081,31.2380952 Z M43.993,115.420857 L37.376381,108.80619 L40.9004286,98.236 L37.1967619,97.0001429 L33.6727143,107.570333 L24.272,108.913571 L30.8944762,87.945 C31.5465714,87.7829524 32.1967143,87.6130952 32.8351429,87.3749048 C34.9690952,92.0528095 39.0046667,95.4929048 43.844619,96.9064286 L46.7673333,106.404762 L43.993,115.420857 Z M73.3470476,108.913571 L63.9463333,107.570333 L60.4222857,97.0001429 L56.718619,98.236 L60.2426667,108.80619 L53.6260476,115.420857 L48.1320476,97.5702381 C48.3604762,97.5780476 48.5810952,97.6190476 48.8095238,97.6190476 C55.7775714,97.6190476 61.9529524,93.5815238 64.7839048,87.3749048 C65.4223333,87.6130952 66.0724762,87.7829524 66.7245714,87.945 L73.3470476,108.913571 Z M80.5630476,80.5630476 C76.3283333,84.7958095 69.9147619,85.7915238 64.6023333,83.0289048 L62.540619,81.959 L61.8397143,84.173 C60.0357143,89.8798095 54.7974762,93.7142857 48.8095238,93.7142857 C42.8215714,93.7142857 37.5833333,89.8798095 35.7793333,84.1710476 L35.0784286,81.9570476 L33.0167143,83.0269524 C27.7042857,85.7915238 21.2907143,84.7938571 17.056,80.5610952 C12.8212857,76.326381 11.8314286,69.9108571 14.5901429,64.5984286 L15.662,62.5367143 L13.4460476,61.8358095 C7.7392381,60.0357143 3.9047619,54.7994286 3.9047619,48.8095238 C3.9047619,42.8215714 7.7392381,37.5833333 13.4460476,35.7793333 L15.662,35.0784286 L14.5901429,33.0167143 C11.8314286,27.7042857 12.8232381,21.2907143 17.056,17.056 C21.2907143,12.8232381 27.7081905,11.8353333 33.0167143,14.5901429 L35.0784286,15.662 L35.7793333,13.4460476 C37.5833333,7.7392381 42.8215714,3.9047619 48.8095238,3.9047619 C54.7974762,3.9047619 60.0357143,7.7392381 61.8397143,13.4460476 L62.540619,15.662 L64.6023333,14.5901429 C69.9147619,11.8314286 76.3283333,12.8212857 80.5630476,17.056 C84.0226667,20.5175714 85.3151429,25.4590476 84.0949048,30.1486667 C81.8086667,30.8495714 79.4052857,31.2185714 76.9472381,31.2302857 C70.9007143,21.5796667 60.2348571,15.6190476 48.8095238,15.6190476 C30.5079048,15.6190476 15.6190476,30.5079048 15.6190476,48.8095238 C15.6190476,67.1111429 30.5079048,82 48.8095238,82 C60.5199048,82 71.0764286,76.0022857 77.0878095,66.1681429 C79.1221905,68.8175238 81.5685238,71.1408571 84.337,73.0737143 C83.8801429,75.8929524 82.5974286,78.5267143 80.5630476,80.5630476 L80.5630476,80.5630476 Z M74.6707619,62.5269524 C73.4524762,64.8249048 71.9725714,66.9178571 70.2642381,68.7648095 C70.151,63.0716667 65.8850476,58.2024286 60.2270476,57.3941429 L56.1368095,56.810381 L55.3949048,54.5846667 C57.7475238,52.9798095 59.475381,50.5354286 60.1743333,47.6927619 L61.9295238,45.1878571 C63.5636667,42.8508571 64.4285714,40.1097143 64.4285714,37.2572857 C64.4285714,29.6312857 58.2258571,23.4285714 50.5998571,23.4285714 L47.0172381,23.4285714 C39.3931905,23.4285714 33.1904762,29.6312857 33.1904762,37.2572857 C33.1904762,40.1097143 34.055381,42.8508571 35.6914762,45.1878571 L37.4447143,47.6927619 C38.1436667,50.537381 39.8715238,52.9798095 42.2241429,54.5846667 L41.4822381,56.810381 L37.392,57.3941429 C31.7613333,58.1985238 27.5149048,63.0267619 27.362619,68.6847619 C22.5148571,63.4562857 19.5238095,56.4843333 19.5238095,48.8095238 C19.5238095,32.661381 32.661381,19.5238095 48.8095238,19.5238095 C58.0501429,19.5238095 66.732381,23.9420476 72.226381,31.2380952 L70.2857143,31.2380952 L70.2857143,46.1367143 C70.2857143,52.0602381 71.8769048,57.6655238 74.6707619,62.5269524 L74.6707619,62.5269524 Z M43.5185714,33.2529524 C43.7079524,33.8210952 43.9461429,34.3619048 44.2272857,34.8734286 L42.0054762,35.7637143 C39.8969048,36.6071429 38.3330476,38.2861905 37.5872381,40.3264286 C37.2670476,39.3424286 37.0952381,38.3115714 37.0952381,37.2572857 C37.0952381,31.7847619 41.5466667,27.3333333 47.0191905,27.3333333 L50.6018095,27.3333333 C56.072381,27.3333333 60.5238095,31.7847619 60.5238095,37.2572857 C60.5238095,38.2510476 60.3715238,39.2252857 60.0864762,40.1565714 C59.342619,38.3154762 57.6987143,36.9234286 55.6291905,36.5798095 L51.8161905,35.9433333 C49.6705238,35.5860476 47.9114286,34.0807619 47.2222381,32.0190476 L46.7575714,30.6230952 L43.0539048,31.857 L43.5185714,33.2529524 Z M41,43.0129048 C41,41.4060952 41.9644762,39.9828095 43.4541429,39.3873333 L46.9391429,37.9933333 C48.1632857,38.9050952 49.6060952,39.5337619 51.1719048,39.7934286 L54.9849048,40.4299048 C55.9318095,40.5880476 56.6190476,41.3982857 56.6190476,42.3549524 L56.6190476,44.9008571 C56.6190476,49.2078095 53.1164762,52.7123333 48.8095238,52.7142857 C44.5025714,52.7123333 41,49.2078095 41,44.9008571 L41,43.0129048 Z M55.129381,60.6097143 L56.8748095,60.859619 L54.2800952,65.1860952 L51.8747619,62.7807619 L55.129381,60.6097143 Z M48.8095238,60.1294286 L45.2757143,57.7729048 L45.797,56.2090476 C46.7595238,56.4687143 47.765,56.6190476 48.805619,56.6190476 L48.8134286,56.6190476 C49.8540476,56.6190476 50.8595238,56.4687143 51.8220476,56.211 L52.3433333,57.7748571 L48.8095238,60.1294286 Z M45.7442857,62.7807619 L43.3389524,65.1860952 L40.7442381,60.859619 L42.4896667,60.6097143 L45.7442857,62.7807619 Z M42.5638571,71.4825238 L48.8095238,65.2368571 L55.0551905,71.4825238 L60.9982381,61.5741905 C64.1435238,62.6109048 66.3809524,65.5902381 66.3809524,68.9912857 L66.3809524,72.267381 C61.4238571,75.988619 55.3207143,78.0952381 48.8095238,78.0952381 C42.2124286,78.0952381 36.1385714,75.8773333 31.2380952,72.1834286 L31.2380952,68.9912857 C31.2380952,65.5902381 33.4755238,62.6109048 36.6208095,61.5741905 L42.5638571,71.4825238 Z M117.142857,46.1367143 C117.142857,59.2957619 108.335667,70.7367143 95.6666667,74.1260476 C82.9976667,70.7367143 74.1904762,59.2957619 74.1904762,46.1367143 L74.1904762,35.1428571 L76.8125238,35.1428571 C83.8215714,35.1428571 90.446,32.6399048 95.6666667,28.0557143 C100.885381,32.6399048 107.50981,35.1428571 114.52081,35.1428571 L117.142857,35.1428571 L117.142857,46.1367143 Z" id="Shape"></path>
                                <polygon id="Path" points="91.7619048 57.7631429 85.3327143 51.3339524 82.5720476 54.094619 91.7619048 63.2844762 112.666048 42.3803333 109.905381 39.6196667"></polygon>
                            </g>
                        </g>
                    </g>
                </g>
            </g>
        </g>
    </g>
</svg>