<?xml version="1.0" encoding="UTF-8"?>
<svg width="721px" height="635px" viewBox="0 0 721 635" version="1.1" xmlns="http://www.w3.org/2000/svg" xmlns:xlink="http://www.w3.org/1999/xlink">
    <title>image</title>
    <defs>
        <polygon id="path-1" points="0.357801262 0.107184254 202.817145 0.107184254 202.817145 99.2880568 0.357801262 99.2880568"></polygon>
    </defs>
    <g id="Page-1" stroke="none" stroke-width="1" fill="none" fill-rule="evenodd">
        <g id="Landing-Page" transform="translate(-670.000000, -137.000000)">
            <g id="02-Header" transform="translate(0.000000, -167.534888)">
                <g id="Image" transform="translate(670.000000, 0.000000)">
                    <g id="image" transform="translate(0.000000, 304.534888)">
                        <path d="M574.418102,549.536471 C574.538268,549.466652 575.286874,550.455476 576.394356,552.402272 C577.50671,554.342574 578.89025,557.289559 580.176359,561.092226 C582.811906,568.67158 584.466633,579.860382 583.485814,592.062363 C582.513113,604.26272 579.692444,614.972536 577.516453,622.595729 C575.290122,630.22217 573.651633,634.851292 573.369079,634.773355 C573.057295,634.6873 574.163154,629.897434 575.990012,622.196303 C577.769777,614.496797 580.309516,603.84381 581.261106,591.8935 C582.217568,579.946437 580.856762,569.07263 578.669404,561.554975 C576.545377,553.999976 574.067345,549.718323 574.418102,549.536471" id="Fill-1" fill="#FFFFFF"></path>
                        <path d="M581.936475,488.475583 C582.076129,488.413883 582.98225,490.071664 584.494077,493.12906 C586.00428,496.186455 588.126683,500.641843 590.637192,506.201335 C595.617613,517.320319 602.320964,532.884948 607.182843,550.954921 C609.573185,559.993966 611.20193,568.781341 612.026858,576.851047 C612.858282,584.91913 612.942723,592.250061 612.527011,598.3681 C612.124291,604.489386 611.351327,609.401029 610.607593,612.740945 C609.871978,616.087357 609.289007,617.889645 609.157473,617.860769 C608.745009,617.780859 610.565372,610.414207 610.951854,598.295034 C611.43252,586.200216 609.844372,569.396717 605.026338,551.529704 C600.219671,533.656197 593.790755,518.08345 589.188696,506.826453 C586.871428,501.193895 584.997478,496.634592 583.700002,493.483023 C582.433381,490.318464 581.795198,488.538907 581.936475,488.475583" id="Fill-3" fill="#FFFFFF"></path>
                        <path d="M303.694131,440.142858 C303.952327,440.420508 301.422332,442.833301 298.138859,447.313044 C297.323674,448.438256 296.438663,449.669008 295.610487,451.075118 C294.704366,452.42927 293.916787,453.983135 293.039895,455.587334 C291.409525,458.857433 289.861974,462.574044 288.668426,466.620263 C287.526843,470.681095 286.861055,474.651001 286.502179,478.288052 C286.393379,480.111449 286.234239,481.847166 286.279708,483.474097 C286.234239,485.105899 286.328424,486.620795 286.419361,488.007421 C286.81721,493.545805 287.677863,496.934432 287.310868,497.033477 C287.088397,497.10979 285.672379,493.836445 284.850699,488.168166 C284.65421,486.752314 284.465841,485.196825 284.430116,483.513065 C284.303453,481.830929 284.39439,480.031888 284.451226,478.13705 C284.707798,474.360362 285.337861,470.218346 286.524913,466.003264 C287.762305,461.801171 289.430023,457.959536 291.224404,454.62449 C292.182489,452.987817 293.061005,451.416092 294.064559,450.060316 C294.988543,448.652583 295.977483,447.43482 296.896595,446.340457 C300.607147,441.97762 303.547983,439.961005 303.694131,440.142858" id="Fill-5" fill="#FFFFFF"></path>
                        <path d="M309.632313,459.692006 C309.819059,459.990764 308.409536,461.06889 306.568063,463.130968 C305.63596,464.149017 304.653516,465.469072 303.687311,466.998581 C302.761703,468.55407 301.875068,470.338498 301.178426,472.306403 C300.512638,474.284049 300.111541,476.235716 299.882575,478.033134 C299.699077,479.832175 299.65848,481.475343 299.765656,482.85385 C299.944282,485.610864 300.390847,487.330345 300.057953,487.450498 C299.819243,487.551166 298.815689,485.977817 298.201865,483.063305 C297.881962,481.610108 297.750428,479.830551 297.833246,477.8594 C297.963156,475.894743 298.339894,473.740115 299.069014,471.578992 C299.827363,469.427612 300.860147,467.5003 301.969252,465.871745 C303.117331,464.267546 304.318998,462.949115 305.465453,462.002508 C307.745372,460.083314 309.505651,459.463067 309.632313,459.692006" id="Fill-7" fill="#FFFFFF"></path>
                        <path d="M227.198467,257.50807 C227.313762,257.407402 228.312445,258.389731 230.025632,260.263461 C230.896028,261.190584 231.92394,262.358013 233.011936,263.79822 C234.111298,265.225438 235.433132,266.810153 236.673771,268.714733 C237.313577,269.654846 237.985861,270.638798 238.684127,271.664966 C239.375897,272.697629 240.002713,273.827712 240.700978,274.969162 C242.129987,277.235824 243.411224,279.794749 244.804508,282.464084 C247.435183,287.879069 249.950564,294.02471 251.954424,300.686683 C253.89333,307.368141 255.124226,313.895348 255.859841,319.868879 C256.140771,322.867822 256.455803,325.712516 256.48828,328.38997 C256.522382,329.727885 256.610071,331.017089 256.590584,332.260831 C256.562978,333.501325 256.533749,334.691485 256.507767,335.828063 C256.501271,338.104468 256.252818,340.150309 256.10667,341.947726 C255.975136,343.746767 255.747794,345.284396 255.520451,346.534632 C255.101492,349.039975 254.797827,350.407117 254.645183,350.38625 C254.252206,350.334051 254.992692,344.782677 254.930985,335.811827 C254.909875,334.689861 254.890388,333.517562 254.869278,332.293305 C254.843296,331.070671 254.713386,329.800951 254.640312,328.487391 C254.529888,325.8554 254.149902,323.064288 253.820255,320.123797 C252.98396,314.267171 251.717339,307.877977 249.814159,301.31992 C247.846023,294.781347 245.437818,288.728255 242.954915,283.35711 C241.634706,280.710506 240.434663,278.161323 239.098215,275.891414 C238.443794,274.748341 237.862447,273.613386 237.221017,272.572605 C236.573091,271.535071 235.952771,270.53813 235.360057,269.586651 C230.535528,262.02191 226.894803,257.766236 227.198467,257.50807" id="Fill-9" fill="#FFFFFF"></path>
                        <path d="M252.462859,267.959721 C252.652852,267.790857 255.215325,270.187414 258.47444,274.806793 C260.114553,277.105929 261.842355,280.004204 263.524688,283.345745 C265.158305,286.710017 266.717224,290.530544 267.961111,294.670936 C269.16765,298.822695 269.934118,302.878656 270.392051,306.590396 C270.794771,310.310255 270.91981,313.681022 270.791524,316.502983 C270.565805,322.150154 269.716519,325.555018 269.466443,325.516381 C269.107566,325.472211 269.394992,322.025131 269.213118,316.50136 C269.140044,313.741098 268.855866,310.462881 268.354089,306.858304 C267.7971,303.260222 266.991659,299.337402 265.82247,295.304173 C264.612684,291.282309 263.156069,287.551085 261.6686,284.229028 C260.130792,280.92808 258.588111,278.02331 257.149359,275.664098 C254.299461,270.929437 252.186801,268.191907 252.462859,267.959721" id="Fill-11" fill="#FFFFFF"></path>
                        <polygon id="Fill-13" fill="#B57AD2" points="163.995834 450.5059 162.053681 446.540865 107.985177 487.847371 131.573569 526.055889 185.395244 480.682056"></polygon>
                        <polygon id="Fill-15" fill="#D7D4D4" points="110.250968 488.730655 130.973223 524.5621 132.298304 523.97108 113.844601 490.467996"></polygon>
                        <path d="M162.927813,449.721011 L110.250968,488.730005 C110.250968,488.730005 110.471815,489.567826 111.779033,490.084157 C113.087876,490.600489 113.844601,490.46897 113.844601,490.46897 L169.225195,452.570576 C169.225195,452.570576 166.032659,451.828553 164.874837,450.964753 C163.715391,450.097706 162.927813,449.721011 162.927813,449.721011" id="Fill-17" fill="#B57AD2"></path>
                        <path d="M170.579344,451.041878 L112.855499,489.592993 L131.603123,525.119186 L134.623529,530.038947 L192.348997,487.32146 C192.348997,487.32146 186.269213,478.248317 182.618745,472.770009 C178.968276,467.291701 171.802121,454.372053 171.412391,453.543974 C171.021038,452.715895 170.579344,451.041878 170.579344,451.041878" id="Fill-19" fill="#B57AD2"></path>
                        <polygon id="Fill-21" fill="#775298" points="646.611475 184.891753 648.241844 181.561578 693.645357 216.248327 673.837344 248.333934 628.641686 210.230956"></polygon>
                        <polygon id="Fill-23" fill="#D7D4D4" points="691.742989 216.9897 674.343181 247.078178 673.229203 246.582954 688.725832 218.449392"></polygon>
                        <path d="M647.50899,184.2314 L691.743314,216.989213 C691.743314,216.989213 691.556568,217.692268 690.460454,218.125792 C689.361091,218.559315 688.724532,218.448905 688.724532,218.448905 L642.220032,186.62471 C642.220032,186.62471 644.901048,186.002839 645.873749,185.275429 C646.846449,184.548019 647.50899,184.2314 647.50899,184.2314" id="Fill-25" fill="#F5F3F3"></path>
                        <path d="M641.083321,185.342162 L689.555956,217.713538 L673.814123,247.547097 L671.277632,251.677748 L622.801749,215.80571 C622.801749,215.80571 627.908832,208.185764 630.973082,203.585869 C634.04058,198.985974 640.057032,188.136521 640.383431,187.441585 C640.711454,186.748272 641.083321,185.342162 641.083321,185.342162" id="Fill-27" fill="#B57AD2"></path>
                        <path d="M99.4445745,122.460801 C99.4445745,122.460801 96.0165768,124.833002 97.7297637,128.788295 C99.4445745,132.743588 106.959863,144.476324 117.112322,144.080145 C117.528034,144.065532 104.322692,122.460801 104.322692,122.460801 L99.4445745,122.460801 Z" id="Fill-29" fill="#FF7B5B"></path>
                        <path d="M83.9138448,338.757188 C83.9138448,338.757188 71.2183989,327.417383 67.1538426,329.448611 C62.1880363,331.931223 33.7653718,359.77577 34.8761016,372.893508 C35.3324101,378.266277 41.5875723,373.663134 52.7338426,362.102508 C63.8833606,350.543506 77.9217502,355.497364 77.9217502,355.497364 L83.9138448,338.757188 Z" id="Fill-31" fill="#B57AD2"></path>
                        <path d="M114.75868,357.881419 L99.4325579,348.688123 C99.4325579,348.688123 59.7061074,385.927302 65.9125534,390.892526 C70.6201637,394.657848 73.3872448,391.280586 84.535139,379.71996 C95.6814092,368.162582 109.80424,374.808318 109.80424,374.808318 L114.75868,357.881419 Z" id="Fill-33" fill="#B57AD2"></path>
                        <polygon id="Fill-35" fill="#F3A683" points="208.379555 235.366387 211.253812 276.172798 147.455055 259.554399"></polygon>
                        <path d="M147.455055,260.958398 C147.455055,260.958398 203.261105,264.475296 210.691952,261.995931 C210.691952,261.995931 221.597889,369.121692 202.192596,380.67907 C182.785679,392.239696 139.23663,375.312797 139.23663,375.312797 L150.9951,352.194792 L176.347019,350.543506 L176.347019,309.261355 L174.52828,309.673771 L147.455055,260.958398 Z" id="Fill-37" fill="#112129"></path>
                        <path d="M77.5008421,334.030483 C77.5008421,334.030483 63.4640764,339.810796 68.0060516,353.847539 C68.0060516,353.847539 115.921698,391.414703 139.237279,382.744233 C152.29972,377.887796 166.331615,340.832093 176.147932,309.173514 L210.692601,261.995769 C210.692601,261.995769 194.400275,262.810858 188.965169,262.78975 C178.577248,262.750782 147.455705,260.958235 147.455705,260.958235 C147.455705,260.958235 131.199103,346.003525 125.406745,348.067227 C119.614387,350.129304 77.5008421,334.030483 77.5008421,334.030483" id="Fill-39" fill="#22343D"></path>
                        <path d="M160.459524,154.293114 C160.459524,154.293114 193.904831,122.917056 199.684198,114.659002 C205.463565,106.402572 217.853723,78.7431249 233.126256,67.1841227 L225.695409,51.4960936 C225.695409,51.4960936 230.239009,49.0199764 233.126256,55.6234968 C233.126256,55.6234968 243.860063,34.1584021 246.338094,34.569194 C248.81775,34.9816096 241.385279,51.083678 241.385279,51.083678 C241.385279,51.083678 251.709869,36.22048 254.598741,36.6345193 C257.485988,37.0469349 247.16627,53.3422216 247.16627,53.3422216 C247.16627,53.3422216 258.725004,39.9370914 260.378108,41.5883774 C262.029587,43.2396634 251.294157,53.3422216 251.294157,53.3422216 C251.294157,53.3422216 262.854515,46.7062275 264.093531,48.8933291 C265.332547,51.083678 252.533173,56.8623672 252.533173,56.8623672 C252.533173,56.8623672 251.294157,66.3576678 243.450846,70.485071 C243.450846,70.485071 227.918493,112.444298 213.880103,126.067002 L168.783502,172.929752 L160.459524,154.293114 Z" id="Fill-41" fill="#FFC6B2"></path>
                        <path d="M120.535773,170.554466 C120.535773,170.554466 88.8458745,203.700339 80.5348881,209.401091 C72.2222777,215.10022 44.4459151,227.230759 32.74428,242.395962 L17.1242372,234.818231 C17.1242372,234.818231 14.6056088,239.335319 21.1839218,242.285551 C21.1839218,242.285551 -0.38599482,252.818386 0.00535878378,255.300998 C0.39346464,257.781986 16.5656245,250.501389 16.5656245,250.501389 C16.5656245,250.501389 1.60487455,260.685132 1.99135653,263.576912 C2.37783851,266.468692 18.7692214,256.301187 18.7692214,256.301187 C18.7692214,256.301187 5.25534302,267.733541 6.89220788,269.399441 C8.525825,271.066963 18.7318723,260.430213 18.7318723,260.430213 C18.7318723,260.430213 11.9863002,271.925892 14.165539,273.184247 C16.34153,274.442601 22.2410637,261.699934 22.2410637,261.699934 C22.2410637,261.699934 31.7472214,260.553613 35.9514309,252.746944 C35.9514309,252.746944 75.6989917,236.933891 89.4564511,223.025419 L138.919649,187.98146 L120.535773,170.554466 Z" id="Fill-43" fill="#FFC6B2"></path>
                        <path d="M132.416034,157.343853 L116.388399,173.031882 L120.452956,190.717041 C120.452956,190.717041 136.243505,228.621931 138.6306,237.868808 C142.341152,252.248148 136.339314,274.172745 136.339314,274.172745 C136.339314,274.172745 163.108875,271.949923 187.466983,271.125091 C211.823467,270.298636 219.791816,262.452998 219.791816,262.452998 C219.791816,262.452998 198.673336,192.124775 184.092573,172.465216 C169.510185,152.808905 164.206613,146.655145 164.206613,146.655145 L142.737377,151.34759 L132.416034,157.343853 Z" id="Fill-45" fill="#FFFFFF"></path>
                        <path d="M179.454464,170.147083 L196.154383,159.47786 C196.154383,159.47786 198.705489,148.047129 178.566205,134.564062 L154.950207,149.360688 L179.454464,170.147083 Z" id="Fill-47" fill="#FFFFFF"></path>
                        <path d="M119.765895,171.791388 C110.610494,173.075721 93.8797212,196.276533 92.0138901,196.232694 C92.0138901,196.232694 103.7886,215.44574 113.116131,216.069234 C113.116131,216.069234 154.162791,166.967424 119.765895,171.791388" id="Fill-49" fill="#FFFFFF"></path>
                        <path d="M152.08407,156.695354 C152.08407,156.695354 138.776424,146.75354 139.237604,142.790129 C139.354523,141.791564 141.199243,140.171127 141.678286,138.732544 C144.258622,130.992445 131.818124,111.048742 124.17455,106.845025 C118.161345,103.539206 120.796892,103.246943 108.142043,110.766221 C95.4871939,118.285499 102.697194,131.287956 108.348275,138.013252 C113.69082,144.369973 119.809577,147.09289 125.314509,147.552392 L133.141581,164.935547 L152.08407,156.695354 Z" id="Fill-51" fill="#FFC6B2"></path>
                        <path d="M128.071685,170.495851 C125.55468,164.322606 130.32075,156.546787 138.717802,153.122438 C147.118101,149.696466 155.963342,151.92416 158.485218,158.094157 C161.000599,164.265777 152.549959,173.543504 147.832606,175.467569 C143.115252,177.391634 130.587065,176.665848 128.071685,170.495851" id="Fill-53" fill="#FFC6B2"></path>
                        <path d="M108.348925,138.013415 C108.348925,138.013415 104.032668,137.774733 103.553625,140.650276 C103.072958,143.527443 111.465139,143.527443 114.582976,141.369568 L108.348925,138.013415 Z" id="Fill-55" fill="#FFC6B2"></path>
                        <path d="M110.507215,140.650439 C109.687159,135.453028 104.148125,131.588662 104.424184,126.524393 C107.079218,126.545501 108.784285,123.257542 107.576123,120.446946 C107.100328,119.342841 106.294886,118.397858 105.780118,117.308366 C105.266974,116.220498 105.130569,114.794904 105.918148,114.179528 C106.291639,113.888889 106.796664,113.838555 107.280578,113.789844 C111.216848,113.385547 117.960796,114.565965 121.583659,113.223179 C125.032767,111.94534 128.728704,109.459481 128.369828,105.234656 C128.05642,101.55539 124.807049,98.5726832 121.822368,96.3190107 C120.112429,95.0265587 115.226193,91.6476735 113.383096,91.9545497 C110.568923,92.4221705 109.886895,96.1761265 109.683911,99.3179539 C107.715776,97.4442233 104.81229,97.7446047 103.100727,99.2692434 C101.389164,100.793882 100.57885,103.216418 99.8334923,105.554522 C99.0865104,107.89425 98.2956838,110.32328 96.606855,111.877145 C95.0333212,113.325471 92.5439225,114.421457 92.8703212,116.884585 C93.258427,119.820204 97.0940171,120.864233 98.8672874,123.367953 C98.4304653,122.7542 98.0602221,126.673772 98.3119225,127.337859 C99.0686477,129.33986 100.957213,130.664786 102.322891,132.195919 C105.231249,135.459523 106.653763,138.745858 110.507215,140.650439" id="Fill-57" fill="#FF7B5B"></path>
                        <path d="M134.619469,128.76605 L124.785289,133.851427 C124.785289,133.851427 136.597347,142.424475 134.619469,128.76605" id="Fill-59" fill="#FFFFFF"></path>
                        <path d="M121.090001,130.782178 C121.627504,131.801851 120.831805,133.276156 119.313483,134.075008 C117.795161,134.87386 116.129067,134.695255 115.591564,133.675582 C115.055686,132.655909 115.84976,131.183228 117.368082,130.382752 C118.888028,129.5839 120.552499,129.762505 121.090001,130.782178" id="Fill-61" fill="#FFB2A0"></path>
                        <path d="M135.449593,120.974319 C135.987095,121.993992 135.191397,123.468296 133.673075,124.267148 C132.154753,125.066001 130.488659,124.887396 129.951156,123.867722 C129.415278,122.848049 130.209352,121.373745 131.727674,120.574892 C133.24762,119.77604 134.912091,119.954645 135.449593,120.974319" id="Fill-63" fill="#FFB2A0"></path>
                        <path d="M127.754542,128.40543 C127.709074,128.348601 127.892571,128.106673 128.318026,127.799796 C128.723995,127.486426 129.43038,127.148699 129.954891,126.583658 C130.474531,126.036476 130.661276,124.895027 129.865578,124.734282 C129.039026,124.453385 128.100427,125.401616 127.023799,126.30276 C126.757484,126.523581 126.494416,126.742779 126.232972,126.958728 C125.989391,127.182797 125.476247,127.510781 124.943616,127.44421 C123.928695,127.280218 123.496745,126.603142 123.107015,126.150134 C122.327556,125.149945 121.846889,124.102669 121.580574,123.196654 C121.052815,121.365139 121.2899,120.183098 121.416562,120.19278 C121.593565,120.184721 121.652024,121.3213 122.322684,122.931994 C122.66045,123.73247 123.165475,124.641732 123.901089,125.500661 C124.259966,125.935808 124.711402,126.341729 125.03293,126.354718 C125.167711,126.361213 125.273263,126.31575 125.526587,126.103047 C125.784783,125.887097 126.044603,125.6679 126.30767,125.447079 C126.850044,125.008685 127.319344,124.565419 127.939664,124.153004 C128.542121,123.747083 129.40115,123.490541 130.170866,123.751954 C130.992547,123.967904 131.474837,124.925877 131.331936,125.591587 C131.239375,126.270287 130.90161,126.770381 130.518375,127.13571 C129.708062,127.812786 128.983815,127.976778 128.527506,128.181362 C128.05983,128.358344 127.803258,128.468754 127.754542,128.40543" id="Fill-65" fill="#FF7B5B"></path>
                        <path d="M125.314672,147.552555 C125.314672,147.552555 131.587696,147.588276 134.991336,145.4921 C134.991336,145.4921 132.112208,149.028483 126.350703,149.94424 L125.314672,147.552555 Z" id="Fill-67" fill="#FFA192"></path>
                        <path d="M128.035148,119.42435 C127.978312,119.734474 127.10142,119.830271 126.174188,120.239439 C125.233965,120.619381 124.555186,121.182799 124.293742,121.007442 C124.025803,120.866181 124.46912,119.74584 125.73899,119.211648 C127.007235,118.674209 128.117965,119.132087 128.035148,119.42435" id="Fill-69" fill="#22343D"></path>
                        <path d="M115.741935,127.487237 C115.50485,127.31188 115.876717,126.301949 116.779591,125.290394 C117.693832,124.257731 118.861397,123.91351 118.984811,124.202526 C119.114721,124.483423 118.403464,125.137768 117.602895,126.045407 C116.789334,126.949798 115.998507,127.678832 115.741935,127.487237" id="Fill-71" fill="#22343D"></path>
                        <path d="M110.976515,125.928664 C110.468242,125.551969 110.072017,123.939652 112.017418,121.767163 C113.980682,119.545964 116.174535,119.937272 116.437603,120.554272 C116.720157,121.159906 115.989414,122.022081 114.266483,123.975373 C112.517571,125.922169 111.527008,126.341079 110.976515,125.928664" id="Fill-73" fill="#FF7B5B"></path>
                        <path d="M121.303378,117.37104 C121.022448,116.844967 121.332608,115.313833 123.862604,114.247073 C126.428324,113.144592 128.138264,114.360731 128.113905,114.992344 C128.109034,115.62071 127.142829,116.060728 124.888892,117.03169 C122.618716,117.984793 121.607043,117.944201 121.303378,117.37104" id="Fill-75" fill="#FF7B5B"></path>
                        <path d="M660.936153,132.601678 C661.101788,132.76567 658.376928,135.831184 652.722599,139.169477 C647.138097,142.504523 638.351315,145.810342 628.244324,145.885032 C618.137333,145.959721 609.301836,142.783796 603.668617,139.531559 C597.967196,136.277697 595.196867,133.251151 595.359255,133.083912 C595.594716,132.786778 598.693068,135.339208 604.402608,138.133567 C610.056937,140.939292 618.579027,143.723909 628.226462,143.654091 C637.877144,143.581025 646.35539,140.671384 651.969122,137.782852 C657.634818,134.904061 660.697444,132.306167 660.936153,132.601678" id="Fill-77" fill="#775298"></path>
                        <path d="M599.276525,127.970933 C599.122257,128.310283 596.1051,127.058423 591.022375,125.925092 C588.489131,125.327576 585.415138,124.86645 581.992012,124.441045 C578.555895,124.061103 574.757654,123.759098 570.746685,123.47333 C566.734093,123.192432 562.893631,122.869319 559.40555,122.43742 C555.917469,121.97467 552.783393,121.424241 550.201433,120.726057 C545.018028,119.373529 542.082064,117.772577 542.184368,117.546885 C542.319149,117.205912 545.406134,118.259682 550.539199,119.183558 C553.100048,119.672287 556.19028,120.050605 559.631269,120.393202 C563.080377,120.708197 566.889985,120.966362 570.907449,121.248883 C574.928161,121.534652 578.775118,121.903228 582.259951,122.403322 C585.743161,122.950504 588.867494,123.586987 591.423471,124.398829 C596.556537,125.965684 599.39182,127.75823 599.276525,127.970933" id="Fill-79" fill="#775298"></path>
                        <g id="Group-83" transform="translate(517.413138, 41.843410)">
                            <mask id="mask-2" fill="white">
                                <use xlink:href="#path-1"></use>
                            </mask>
                            <g id="Clip-82"></g>
                            <path d="M20.7222623,20.1962346 C30.3583299,18.1520172 40.3419065,19.91209 50.0575439,21.5309024 C59.7748051,23.1497147 69.8623096,24.6094061 79.3619718,22.0017706 C96.5133276,17.2947124 109.533548,-0.0316133123 127.319839,0.107184254 C134.64351,0.16485238 141.546598,3.29206663 148.6819,4.94660002 C157.541756,7.00218322 166.771855,6.78136228 175.747006,8.2475484 C184.72378,9.71373451 193.9961,13.3231827 199.069082,20.8716869 C205.087159,29.8295483 203.437303,42.4650526 197.122057,51.2167062 C190.806812,59.9699834 180.693325,65.2989124 170.331386,68.3189635 C163.103524,70.4248809 155.403114,71.6426435 149.147952,75.8333703 C142.821339,80.0728077 138.690204,86.8955254 132.795542,91.7162415 C118.003674,103.811059 94.9836385,100.344495 79.7046092,88.8715481 C75.8657713,85.9895101 72.3078637,82.6447222 67.9948547,80.5355575 C50.4521452,71.9495196 25.2220168,83.3153035 10.1134943,67.6938454 C-5.22886605,51.8288348 -3.04313182,25.2361479 20.7222623,20.1962346" id="Fill-81" fill="#B57AD2" mask="url(#mask-2)"></path>
                        </g>
                        <path d="M533.320939,369.288444 C533.320939,369.288444 549.394043,403.734888 551.274489,397.357059 C553.150063,390.975983 552.529743,375.65653 551.522942,373.469429 C550.511268,371.282327 543.941075,361.619787 543.941075,361.619787 L533.320939,369.288444 Z" id="Fill-84" fill="#FFB2A0"></path>
                        <path d="M649.543704,90.7403592 C651.031172,92.6449399 650.037361,90.5990988 651.721318,93.3463711 C658.720215,93.1028186 663.418082,87.1812452 663.418082,87.1812452 C663.418082,87.1812452 674.527003,87.4751319 674.398717,85.4909907 C674.272055,83.5036023 663.749352,84.2456256 663.749352,84.2456256 C663.749352,84.2456256 674.881008,80.7498352 674.270431,79.0043755 C673.663102,77.2605395 660.811764,82.8232789 660.811764,82.8232789 C660.811764,82.8232789 673.780021,74.7746802 671.86385,73.4838519 C669.949303,72.196271 657.471456,79.2219491 657.471456,79.2219491 C657.471456,79.2219491 668.315686,70.3160456 666.690188,69.1681014 C665.067938,68.0201573 650.025994,79.6116331 650.025994,79.6116331 C650.245217,73.909257 646.154679,74.10897 646.154679,74.10897 L646.323562,88.0320553 C646.323562,88.0320553 648.858429,89.8635702 649.543704,90.7403592" id="Fill-86" fill="#FFC6B2"></path>
                        <path d="M484.877372,27.7250437 C482.50002,28.1634382 484.343117,27.3369834 481.257757,28.2787197 C476.189646,23.4466379 476.86193,15.8526706 476.86193,15.8526706 C476.86193,15.8526706 468.362574,8.6987215 469.772097,7.30073008 C471.189739,5.8994913 478.56375,13.4398771 478.56375,13.4398771 C478.56375,13.4398771 472.563536,3.43473989 474.177667,2.53521928 C475.790173,1.63569867 481.709194,14.3264082 481.709194,14.3264082 C481.709194,14.3264082 477.353964,-0.301355641 479.643626,0.00552052359 C481.930041,0.312396688 486.597054,13.8474216 486.597054,13.8474216 C486.597054,13.8474216 484.401577,-0.0090926271 486.374583,0.210104633 C488.350838,0.42767821 491.905498,19.0821769 491.905498,19.0821769 C495.526736,14.6722528 498.451333,17.538054 498.451333,17.538054 L489.271574,27.6324937 C489.271574,27.6324937 485.970239,27.5253306 484.877372,27.7250437" id="Fill-88" fill="#FFC6B2"></path>
                        <path d="M542.536911,85.8835974 C539.462918,85.3786319 532.030447,90.3178768 528.311776,98.3680991 C526.229969,102.873821 524.797713,107.450984 527.186431,114.778667 C528.311776,118.225747 530.666393,118.657647 531.192528,120.20177 C531.856692,122.156685 529.656343,128.318563 529.656343,128.318563 L538.430134,131.861441 C539.000114,127.628498 539.646415,123.369576 543.961048,121.531567 C545.575179,120.843125 547.302981,120.407978 548.826174,119.534436 C552.936199,117.178471 555.131677,112.0249 556.820505,107.804947 C558.080632,104.653378 550.243816,87.1468231 542.536911,85.8835974" id="Fill-90" fill="#FFC6B2"></path>
                        <path d="M532.092641,205.521624 L517.393335,199.624406 C517.393335,199.624406 473.769587,280.511443 473.950894,302.953995 C474.131711,325.394923 533.865911,370.327114 533.865911,370.327114 L543.940425,361.620924 C543.940425,361.620924 525.498089,329.467121 515.639551,318.130564 C505.779389,306.790759 532.092641,205.521624 532.092641,205.521624" id="Fill-92" fill="#FFB2A0"></path>
                        <path d="M605.076678,297.664034 C605.076678,297.664034 637.474586,282.294247 630.964475,280.936848 C624.454365,279.585943 609.228924,281.448308 607.132502,282.63035 C605.032834,283.814015 595.935892,291.144945 595.935892,291.144945 L605.076678,297.664034 Z" id="Fill-94" fill="#FFC6B2"></path>
                        <path d="M546.531478,204.820031 L524.232442,212.931953 C524.232442,212.931953 501.926911,311.02841 510.442505,326.429047 C518.954852,341.836179 542.869643,331.641071 576.928773,313.054767 L605.456989,297.483643 L595.934593,291.146407 C595.934593,291.146407 562.737739,297.650882 553.41508,304.135874 C553.41508,304.135874 558.280206,290.352426 564.767582,270.895827 C571.253334,251.437605 575.727107,231.575086 546.531478,204.820031" id="Fill-96" fill="#FFC6B2"></path>
                        <path d="M519.084275,137.989709 C519.084275,131.472244 521.18232,126.758691 527.70055,126.758691 C534.218779,126.758691 543.229655,129.043213 543.229655,135.562302 C543.229655,142.083015 538.093342,152.667807 531.571865,152.667807 C525.053635,152.667807 519.084275,144.510421 519.084275,137.989709" id="Fill-98" fill="#FFC6B2"></path>
                        <path d="M524.231793,125.824748 C524.231793,125.824748 503.962599,103.892032 499.907786,82.4058299 C495.851349,60.9228747 488.962876,26.0607682 488.962876,26.0607682 L481.259218,28.2787197 C481.259218,28.2787197 477.60875,75.922462 481.259218,83.2176716 C484.906439,90.5145048 502.73495,139.091865 508.163561,151.849146 L524.231793,125.824748 Z" id="Fill-100" fill="#FFC6B2"></path>
                        <path d="M546.008266,142.918562 C546.008266,142.918562 547.567185,136.095844 573.19841,126.822989 C598.829635,117.551756 647.185352,87.499 647.185352,87.499 L652.009881,93.0178999 C652.009881,93.0178999 625.735602,123.362919 610.450077,128.685353 C595.164552,134.009411 562.698442,154.995519 559.358133,156.674408 C554.306261,159.215473 554.367969,162.412505 546.008266,142.918562" id="Fill-102" fill="#FFC6B2"></path>
                        <path d="M524.231793,125.824748 C524.231793,125.824748 503.637824,132.498087 503.637824,163.830306 C503.637824,163.830306 503.650815,206.742634 508.504574,214.549304 C508.504574,214.549304 516.394977,216.57079 526.232405,214.549304 C536.547252,212.428774 546.530829,204.820193 546.530829,204.820193 L562.730594,156.192499 L560.793313,133.408973 L538.767088,129.156546 C538.767088,129.156546 545.085581,158.679982 522.224684,145.987649 C517.781766,143.521273 528.760777,126.771355 528.760777,126.771355 L524.231793,125.824748 Z" id="Fill-104" fill="#22343D"></path>
                        <path d="M506.806814,151.307323 L496.659226,130.168588 C496.659226,130.168588 498.114217,117.344737 516.743298,112.749713 C516.743298,112.749713 518.626992,119.213596 520.692559,121.683219 C522.756503,124.151217 528.768084,126.778337 528.768084,126.778337 L506.806814,151.307323 Z" id="Fill-106" fill="#22343D"></path>
                        <path d="M545.170834,159.804058 L577.438832,153.190795 C577.438832,153.190795 583.049316,141.568469 569.746541,127.742805 C569.746541,127.742805 544.576496,129.262573 541.319005,129.533728 C538.111855,129.800012 540.313827,132.269635 540.313827,132.269635 L545.170834,159.804058 Z" id="Fill-108" fill="#22343D"></path>
                        <path d="M508.452935,204.097005 C508.452935,204.097005 477.932225,260.518379 472.890097,270.59983 C472.890097,270.59983 562.93228,311.95667 599.484057,262.17616 C599.484057,262.17616 578.691975,218.17434 546.549016,201.422798 L532.682757,197.27104 L508.995309,203.82585" id="Fill-110" fill="#22343D"></path>
                        <path d="M555.638812,107.271405 C555.638812,107.271405 559.115526,103.795099 561.254168,106.201397 C563.39281,108.607696 553.50017,112.084002 553.50017,112.084002 L555.638812,107.271405 Z" id="Fill-112" fill="#FFC6B2"></path>
                        <path d="M619.233108,59.8601739 C619.266575,59.9803265 617.923632,60.5616051 615.359535,61.1704864 C612.801933,61.7858624 609.00694,62.3444095 604.292834,62.4402068 C599.581976,62.5343805 593.979611,62.1154702 587.847864,61.2841443 C581.711244,60.4706789 575.045242,59.2756479 568.031731,58.510893 C561.029586,57.7623749 554.297005,57.6259855 548.334141,58.5888298 C542.369652,59.5354372 537.207357,61.4887284 533.261343,63.7700036 C529.31533,66.0691393 526.569359,68.6199459 524.883778,70.5505055 C523.188454,72.4826887 522.425233,73.7166881 522.253102,73.6127724 C522.158918,73.5640619 522.668814,72.1741889 524.204999,70.0081952 C525.73144,67.8486963 528.425447,64.9991319 532.442911,62.4223463 C536.457127,59.8617976 541.793177,57.6617066 547.993127,56.5608492 C554.201197,55.443755 561.144882,55.5298103 568.268816,56.2929415 C575.399246,57.0706858 582.073368,58.3339115 588.138537,59.2496689 C594.202082,60.1832869 599.682656,60.7548235 604.297706,60.8619866 C613.548915,61.1201522 619.148032,59.4786083 619.233108,59.8601739" id="Fill-114" fill="#775298"></path>
                        <path d="M537.93404,105.29798 C537.924297,105.434369 536.933734,105.530167 535.421907,105.028448 C535.048416,104.89693 534.606723,104.72482 534.195883,104.348125 C533.992898,104.159778 533.804529,103.909731 533.689234,103.609349 C533.523599,103.188815 533.53659,102.711452 533.700601,102.347747 C533.749317,102.274681 533.74607,102.100947 533.841878,102.0977 L534.135799,102.087958 C534.324169,102.061979 534.546639,102.123679 534.764239,102.164271 C535.163711,102.240584 535.291998,102.229218 535.576175,102.248702 C536.074705,102.260068 536.591097,102.20811 537.107489,102.094453 C539.218525,101.649563 540.631295,100.113559 541.264606,98.8503331 C541.92877,97.578989 541.98723,96.6226395 542.164232,96.6340053 C542.28927,96.6177684 542.536099,97.6341942 541.98723,99.1685751 C541.707923,99.9203405 541.222385,100.782516 540.438054,101.539153 C539.658594,102.294166 538.578718,102.914413 537.352693,103.18232 C536.740493,103.31871 536.125045,103.370668 535.532331,103.339818 C535.274135,103.326828 534.868166,103.27487 534.749624,103.248891 C534.640824,103.231031 534.653815,103.206676 534.632705,103.219665 C534.619714,103.232655 534.613218,103.253763 534.614842,103.284612 C534.658687,103.430744 534.738257,103.570381 534.850304,103.695404 C535.076022,103.950323 535.404045,104.140294 535.723948,104.299415 C537.031166,104.94077 537.958398,105.130741 537.93404,105.29798" id="Fill-116" fill="#FF7B5B"></path>
                        <path d="M530.695623,105.673863 L542.582379,110.356566 C542.582379,110.356566 532.135999,117.559225 530.695623,105.673863" id="Fill-118" fill="#FFFFFF"></path>
                        <path d="M547.658284,107.927048 C547.236077,108.729148 545.927235,108.868784 544.733687,108.240419 C543.54014,107.613677 542.914949,106.454367 543.335532,105.653891 C543.757739,104.851792 545.068205,104.710531 546.261753,105.338897 C547.4553,105.967262 548.080491,107.124949 547.658284,107.927048" id="Fill-120" fill="#FFB2A0"></path>
                        <path d="M534.392047,100.893901 C534.031547,101.725227 532.737319,101.965532 531.499927,101.429717 C530.262535,100.893901 529.549655,99.786549 529.910155,98.9552231 C530.269031,98.1238971 531.564882,97.883592 532.802274,98.4194075 C534.039666,98.9552231 534.752547,100.062575 534.392047,100.893901" id="Fill-122" fill="#FFB2A0"></path>
                        <path d="M529.989075,118.708468 C529.989075,118.708468 534.155935,122.197764 538.503046,121.074175 C538.503046,121.074175 537.00421,123.321353 531.234586,122.496522 C531.234586,122.496522 531.713629,120.020405 529.989075,118.708468" id="Fill-124" fill="#FFA192"></path>
                        <path d="M546.518,100.462651 C546.518,100.982229 546.095793,101.404387 545.576153,101.404387 C545.056514,101.404387 544.634306,100.982229 544.634306,100.462651 C544.634306,99.943072 545.056514,99.5209144 545.576153,99.5209144 C546.095793,99.5209144 546.518,99.943072 546.518,100.462651" id="Fill-126" fill="#22343D"></path>
                        <path d="M538.810932,97.6869639 C538.810932,98.2065426 538.388725,98.6287003 537.869085,98.6287003 C537.349446,98.6287003 536.928862,98.2065426 536.928862,97.6869639 C536.928862,97.1673853 537.349446,96.7452276 537.869085,96.7452276 C538.388725,96.7452276 538.810932,97.1673853 538.810932,97.6869639" id="Fill-128" fill="#22343D"></path>
                        <path d="M549.543764,97.9542222 C549.253091,98.0776222 548.69123,97.3972988 547.84032,96.8468701 C547.007273,96.2720862 546.162859,96.0139206 546.164483,95.698926 C546.136877,95.3969209 547.315809,95.1517447 548.46064,95.9197469 C549.607095,96.6828781 549.834438,97.863296 549.543764,97.9542222" id="Fill-130" fill="#775298"></path>
                        <path d="M535.961358,93.3851771 C535.941872,93.0912904 536.953545,92.7210906 538.307856,92.7568116 C539.686525,92.7860379 540.704694,93.4549955 540.563417,93.7342691 C540.433507,94.01679 539.473798,93.8950137 538.264011,93.8722821 C537.04773,93.8365611 535.980845,93.7050427 535.961358,93.3851771" id="Fill-132" fill="#775298"></path>
                        <path d="M540.205677,383.28492 C540.205677,383.28492 545.150373,400.83369 550.255833,399.39673 C555.361292,397.961394 551.522455,373.469754 551.522455,373.469754 L546.428362,365.419531 C546.428362,365.419531 551.213918,406.415914 540.205677,383.28492" id="Fill-134" fill="#22343D"></path>
                        <path d="M602.556751,285.995433 C602.556751,285.995433 606.152007,282.072614 610.510485,281.419894 C614.870586,280.765549 630.451656,278.912926 632.739694,280.983123 C635.029357,283.053319 620.110827,289.994566 620.110827,289.994566 C620.110827,289.994566 625.308848,286.682252 623.150719,285.4515 C619.336239,283.270893 602.556751,285.995433 602.556751,285.995433" id="Fill-136" fill="#22343D"></path>
                        <polygon id="Fill-138" fill="#22343D" points="596.3745 290.693724 601.252618 300.596569 603.914147 299.119017 597.408908 289.363927"></polygon>
                        <polygon id="Fill-140" fill="#22343D" points="541.826466 357.650044 529.85202 368.441044 533.400184 371.397771 543.451964 360.459016"></polygon>
                        <path d="M291.4826,250.222928 C288.077336,241.773279 286.768494,232.365658 281.687393,224.804164 C274.375089,213.923861 260.330203,208.525114 254.396568,196.834593 C251.876316,191.86937 251.085489,186.189725 251.058976,180.622115 C251.010791,169.607046 254.308879,157.897042 262.817978,150.897342 C272.595323,142.853615 287.265399,142.965649 298.716958,148.369267 C310.165269,153.772886 318.913077,163.581557 326.35042,173.827 C333.789386,184.070818 340.30112,195.064779 348.962863,204.297042 C355.385284,211.142492 363.002877,217.046205 367.840397,225.088309 C381.102575,247.136306 367.457163,275.03281 344.044149,282.990483 C323.471291,289.98044 298.600039,267.888603 291.4826,250.222928" id="Fill-142" fill="#22343D"></path>
                        <path d="M262.174437,405.723088 C264.210775,407.397105 261.989315,406.237796 264.951261,408.166731 C264.290345,415.565857 257.445716,420.227452 257.445716,420.227452 C257.445716,420.227452 257.156667,432.007275 254.957941,431.765346 C252.754345,431.526665 254.165491,420.422294 254.165491,420.422294 C254.165491,420.422294 249.659241,432.025135 247.752813,431.286359 C245.848009,430.550831 252.746225,417.236627 252.746225,417.236627 C252.746225,417.236627 243.07768,430.542712 241.749351,428.444914 C240.422646,426.348738 248.930122,413.50865 248.930122,413.50865 C248.930122,413.50865 238.425282,424.520471 237.23823,422.737666 C236.052802,420.959733 249.774536,405.645151 249.774536,405.645151 C243.423565,405.575333 243.873378,401.253087 243.873378,401.253087 L259.342401,402.170469 C259.342401,402.170469 261.237462,404.950215 262.174437,405.723088" id="Fill-144" fill="#FFC6B2"></path>
                        <path d="M409.954105,183.55676 C412.601019,184.021133 410.546818,183.144344 413.981312,184.14291 C419.62265,179.018565 418.874044,170.966719 418.874044,170.966719 C418.874044,170.966719 428.334733,163.38087 426.766071,161.898447 C425.187665,160.412777 416.980607,168.40617 416.980607,168.40617 C416.980607,168.40617 423.657976,157.798646 421.861972,156.843921 C420.069215,155.890818 413.481159,169.347907 413.481159,169.347907 C413.481159,169.347907 418.328422,153.836859 415.77894,154.161596 C413.235954,154.487956 408.041181,168.839694 408.041181,168.839694 C408.041181,168.839694 410.483487,154.146982 408.286386,154.379169 C406.087661,154.609732 402.531377,173.858499 402.531377,173.858499 C397.351219,169.643417 393.725109,172.341979 393.725109,172.341979 L405.062996,183.457715 C405.062996,183.457715 408.737823,183.345681 409.954105,183.55676" id="Fill-146" fill="#FFC6B2"></path>
                        <path d="M345.194177,247.890344 C349.979733,247.14345 364.573488,256.599782 360.859688,275.803086 C360.549528,277.415403 358.443364,280.964775 357.918852,282.432585 C357.256312,284.291702 362.418607,291.09656 362.418607,291.09656 L349.091474,295.353858 C348.523118,291.328746 349.47958,285.446141 345.173066,283.697434 C343.562184,283.04309 341.83763,282.629051 340.317684,281.799348 C336.214154,279.558665 334.023548,274.656765 332.337967,270.644643 C331.079465,267.6457 330.12138,264.421065 330.157105,261.167203 C330.244794,252.974097 337.501886,249.09187 345.194177,247.890344" id="Fill-148" fill="#FFC6B2"></path>
                        <path d="M371.881894,300.483398 C371.881894,293.571378 369.689665,290.932892 362.434196,290.932892 C355.178728,290.932892 345.60112,293.571378 345.60112,300.483398 C345.60112,307.397042 350.724442,316.048027 357.983158,316.048027 C365.237002,316.048027 371.881894,307.397042 371.881894,300.483398" id="Fill-150" fill="#FFC6B2"></path>
                        <path d="M366.152218,287.582584 C366.152218,287.582584 388.712698,264.324943 393.225443,241.541417 C397.739812,218.759515 405.407745,181.791491 405.407745,181.791491 L413.981799,184.142585 C413.981799,184.142585 418.044731,234.665118 413.981799,242.401969 C409.922114,250.140445 386.90695,303.873 387.358387,317.627222 L366.152218,287.582584 Z" id="Fill-152" fill="#FFC6B2"></path>
                        <path d="M325.936819,298.843803 C325.936819,298.843803 318.265639,300.133007 306.53315,326.78577 C294.800661,353.43691 258.701945,403.053428 258.701945,403.053428 L264.569001,408.455422 C264.569001,408.455422 299.764844,382.236183 306.53315,366.332204 C313.299832,350.428225 321.873886,330.655008 325.936819,331.512313 C329.996504,332.374489 347.144612,308.728787 325.936819,298.843803" id="Fill-154" fill="#FFC6B2"></path>
                        <path d="M386.336483,321.180491 L396.841323,292.189623 C396.841323,292.189623 395.220697,278.592898 374.487075,273.718601 L362.741595,290.639006 L386.336483,321.180491 Z" id="Fill-156" fill="#B57AD2"></path>
                        <path d="M329.439028,296.619194 C329.439028,296.619194 317.045622,297.663222 307.000339,319.724209 C307.000339,319.724209 318.047552,334.973844 326.129573,335.488551 C326.129573,335.488551 356.146881,309.834353 329.439028,296.619194" id="Fill-158" fill="#B57AD2"></path>
                        <path d="M363.491338,558.238268 C363.491338,558.238268 345.60112,594.766274 343.50957,588.003633 C341.421268,581.237744 342.111415,564.991168 343.231888,562.672548 C344.357232,560.352304 351.67116,550.106862 351.67116,550.106862 L363.491338,558.238268 Z" id="Fill-160" fill="#FFC6B2"></path>
                        <path d="M364.858315,384.577209 L381.218844,378.322781 C381.218844,378.322781 429.772673,464.098728 429.571937,487.897056 C429.369952,511.692136 362.885308,559.340749 362.885308,559.340749 L351.670835,550.106862 C351.670835,550.106862 383.183732,503.779927 394.156248,491.758175 C399.643317,485.745675 360.361808,456.282316 354.411934,427.932804 C348.462061,399.583291 364.858315,384.577209 364.858315,384.577209" id="Fill-162" fill="#22343D"></path>
                        <path d="M266.490207,539.102997 C266.490207,539.102997 233.025414,563.766748 234.417074,556.844986 C235.813605,549.916729 244.238263,535.777693 246.350923,534.204344 C248.46683,532.634242 259.892407,526.71754 259.892407,526.71754 L266.490207,539.102997 Z" id="Fill-164" fill="#FFC6B2"></path>
                        <path d="M320.345984,414.951455 L368.750416,386.902324 C368.750416,386.902324 370.671459,484.336318 359.051017,505.40361 C347.4322,526.470903 265.421698,539.81758 265.421698,539.81758 L259.892407,526.717702 C259.892407,526.717702 310.489069,496.575644 326.023047,490.676802 C341.558648,484.774713 320.345984,414.951455 320.345984,414.951455" id="Fill-166" fill="#22343D"></path>
                        <path d="M349.173805,367.715582 C349.173805,367.715582 313.533021,380.333226 320.346795,414.95178 C327.158946,449.56871 338.514696,456.058573 338.514696,456.058573 L358.954397,422.524639 L379.475291,378.608874 L358.954397,376.006109 L349.173805,367.715582 Z" id="Fill-168" fill="#22343D"></path>
                        <path d="M366.152218,287.582584 C366.152218,287.582584 392.392396,302.286661 392.392396,335.512095 C392.392396,335.512095 389.058583,373.391005 383.655954,381.666919 C383.655954,381.666919 374.874044,383.811805 363.924263,381.666919 C352.443475,379.419741 341.33293,371.351658 341.33293,371.351658 L332.365898,324.976013 L325.389736,297.897845 L329.171738,296.650856 L348.906677,294.483238 C348.906677,294.483238 346.071393,323.959587 368.107362,309.322081 C372.748393,306.238706 362.329619,290.868919 362.329619,290.868919 L366.152218,287.582584 Z" id="Fill-170" fill="#B57AD2"></path>
                        <polygon id="Fill-172" fill="#FFFFFF" points="382.213467 162.028666 437.230314 194.119145 468.178102 135.66979 416.598996 107.018273"></polygon>
                        <polygon id="Fill-174" fill="#FFFFFF" points="458.75119 441.819843 498.099277 417.464592 465.590946 360.728223 429.62214 384.049187"></polygon>
                        <path d="M265.012968,200.054358 C265.116896,199.961808 266.331554,201.064289 268.252597,203.31309 C270.16552,205.565139 272.775086,208.989487 275.394394,213.61049 C278.023446,218.212009 280.624892,224.050775 282.482604,230.828029 C284.40527,237.55495 285.694626,245.116443 288.650077,252.400287 C290.184637,255.99837 292.043973,259.348028 294.257313,262.309627 C296.49014,265.251741 298.966547,267.833398 301.516029,270.085447 C306.725417,274.469392 312.183257,277.484572 317.046759,279.226784 C321.90539,280.993352 326.067378,281.785709 328.961122,282.069854 C331.851617,282.38972 333.485234,282.436807 333.486888,282.626778 C333.494977,282.745306 331.866232,282.99373 328.897791,282.936901 C325.930973,282.914169 321.613092,282.347504 316.527119,280.717326 C311.437899,279.109879 305.687761,276.135291 300.189324,271.655549 C297.49207,269.353166 294.871137,266.687077 292.510025,263.623187 C290.168399,260.541436 288.19052,257.018043 286.584509,253.246226 C283.505644,245.632775 282.289363,238.00471 280.49823,231.367092 C278.788291,224.706743 276.410939,218.97514 274.007606,214.36388 C271.618887,209.739629 269.248032,206.234097 267.567322,203.844035 C265.876869,201.458844 264.886306,200.166392 265.012968,200.054358" id="Fill-176" fill="#22343D"></path>
                        <path d="M332.606718,162.510054 C333.011063,162.448876 333.404041,167.86386 336.434189,175.87349 C337.94764,179.86288 340.198329,184.453033 343.431462,189.054552 C345.047216,191.358559 346.906552,193.628468 349.011092,195.890259 C351.101018,198.161792 353.377689,200.469046 355.529322,203.057198 C359.843955,208.280587 362.812396,213.926135 365.607083,218.909219 C368.382284,223.941014 370.592376,228.727632 371.716097,233.009286 C372.888534,237.277949 372.956736,240.952345 372.584869,243.389494 C372.196764,245.838008 371.587811,247.078502 371.487131,247.045089 C371.29389,246.994071 371.608921,245.683758 371.719345,243.311557 C371.815153,240.942603 371.513113,237.490652 370.202646,233.455799 C368.936025,229.404708 366.65773,224.838911 363.814327,219.914279 C360.927079,214.991271 357.932655,209.459381 353.811264,204.481168 C351.742448,201.990438 349.498255,199.691302 347.395338,197.36294 C345.281054,195.045944 343.358387,192.63315 341.736137,190.218733 C338.481894,185.385028 336.309151,180.567559 334.948345,176.402811 C333.556685,172.239687 332.963971,168.726036 332.683041,166.305124 C332.405358,163.879341 332.480056,162.521941 332.606718,162.510054" id="Fill-178" fill="#22343D"></path>
                        <path d="M349.473409,268.763606 C349.452299,268.607733 350.348677,268.464848 351.194716,267.471154 C351.38958,267.242215 351.586069,266.907736 351.582821,266.712894 C351.57795,266.503439 351.431801,266.139734 351.180101,265.930279 C350.918657,265.696468 350.627984,265.58281 350.244749,265.621779 C349.848524,265.651005 349.366234,265.847471 348.73617,265.941644 C347.355878,266.125121 346.279249,265.345753 345.57124,264.71414 C344.843745,264.050053 344.28838,263.376225 343.874292,262.772214 C343.049364,261.556076 342.792792,260.677663 342.919454,260.612715 C343.065603,260.534779 343.562508,261.262189 344.492988,262.281862 C344.957416,262.788451 345.543634,263.36973 346.235405,263.929901 C346.917432,264.473835 347.752103,264.969058 348.58515,264.83754 C349.026844,264.780711 349.541612,264.574503 350.168427,264.532287 C350.80661,264.468964 351.516243,264.76285 351.905972,265.201245 C352.32006,265.649381 352.552274,266.177079 352.503558,266.802197 C352.380143,267.441928 352.040754,267.740686 351.759824,268.019959 C350.54679,269.081848 349.434436,268.908114 349.473409,268.763606" id="Fill-180" fill="#FF7B5B"></path>
                        <path d="M355.9754,269.678552 L345.408853,273.520187 C345.408853,273.520187 354.374261,281.362578 355.9754,269.678552" id="Fill-182" fill="#FFFFFF"></path>
                        <path d="M344.354472,269.024532 C344.776679,269.826632 344.151487,270.985942 342.95794,271.612683 C341.764393,272.241049 340.45555,272.101412 340.033343,271.299313 C339.611136,270.498837 340.236327,269.339527 341.429875,268.711161 C342.623422,268.082796 343.932264,268.222432 344.354472,269.024532" id="Fill-184" fill="#FFB2A0"></path>
                        <path d="M356.880872,262.60189 C357.226757,263.439711 356.496014,264.534073 355.250503,265.048781 C354.003368,265.565112 352.712388,265.303699 352.366503,264.465879 C352.020618,263.628058 352.751361,262.533695 353.998496,262.018988 C355.244007,261.50428 356.534987,261.764069 356.880872,262.60189" id="Fill-186" fill="#FFB2A0"></path>
                        <path d="M345.721449,283.978494 C345.721449,283.978494 349.256622,284.697786 353.762872,283.572573 C353.762872,283.572573 351.541413,285.730448 347.912055,286.232167 C347.912055,286.232167 347.098494,284.728636 345.721449,283.978494" id="Fill-188" fill="#FFA192"></path>
                        <path d="M349.333107,260.229851 C349.729332,260.565953 349.778048,261.160222 349.441906,261.5564 C349.105764,261.952579 348.51305,262.00129 348.115201,261.665187 C347.718976,261.330708 347.67026,260.73644 348.006402,260.338638 C348.342543,259.942459 348.936881,259.893748 349.333107,260.229851" id="Fill-190" fill="#22343D"></path>
                        <path d="M342.232718,264.314389 C342.628943,264.650491 342.677659,265.244759 342.341518,265.640938 C342.007,266.037117 341.412662,266.085827 341.014813,265.749725 C340.618587,265.413623 340.569871,264.820978 340.906013,264.423176 C341.242155,264.026997 341.836493,263.978286 342.232718,264.314389" id="Fill-192" fill="#22343D"></path>
                        <path d="M349.375165,256.299725 C349.28098,256.60173 348.399217,256.590365 347.429764,256.884251 C346.452192,257.147288 345.710082,257.624651 345.469748,257.418443 C345.221295,257.246333 345.796147,256.187691 347.122852,255.810997 C348.446309,255.429431 349.493708,256.020452 349.375165,256.299725" id="Fill-194" fill="#22343D"></path>
                        <path d="M337.108909,263.707131 C336.871823,263.531773 337.24369,262.521842 338.146564,261.511911 C339.059181,260.479249 340.22837,260.135028 340.350161,260.42242 C340.481695,260.703317 339.768814,261.357661 338.968244,262.2653 C338.156307,263.169692 337.365481,263.90035 337.108909,263.707131" id="Fill-196" fill="#22343D"></path>
                        <path d="M333.12376,271.551958 C333.12376,271.551958 329.734735,268.705641 328.107614,271.280803 C326.482116,273.855964 335.428037,275.21174 335.428037,275.21174 L333.12376,271.551958 Z" id="Fill-198" fill="#FFC6B2"></path>
                        <path d="M251.635008,531.087684 C251.635008,531.087684 246.776378,533.200096 245.509756,534.468193 C244.241511,535.734666 232.622693,555.800145 234.102042,558.334715 C235.581391,560.869285 247.232686,552.265387 247.232686,552.265387 C247.232686,552.265387 237.482948,554.111515 251.635008,531.087684" id="Fill-200" fill="#B57AD2"></path>
                        <path d="M346.44456,557.621431 C346.44456,557.621431 342.993828,561.351032 342.461197,563.064018 C341.928566,564.773757 340.975352,587.940471 343.464751,589.49596 C345.952526,591.053073 352.75331,578.269813 352.75331,578.269813 C352.75331,578.269813 344.622573,584.637899 346.44456,557.675013" id="Fill-202" fill="#B57AD2"></path>
                    </g>
                </g>
            </g>
        </g>
    </g>
</svg>