<?xml version="1.0" encoding="UTF-8"?>
<svg width="154px" height="154px" viewBox="0 0 154 154" version="1.1" xmlns="http://www.w3.org/2000/svg" xmlns:xlink="http://www.w3.org/1999/xlink">
    <title>place</title>
    <g id="Page-1" stroke="none" stroke-width="1" fill="none" fill-rule="evenodd">
        <g id="Landing-Page" transform="translate(-324.000000, -2946.000000)" fill-rule="nonzero">
            <g id="Secret-Sauce" transform="translate(251.000000, 2730.000000)">
                <g id="3-Features" transform="translate(0.000000, 175.000000)">
                    <g id="Feature-1" transform="translate(0.000000, 41.000000)">
                        <g id="place" transform="translate(73.000000, 0.000000)">
                            <path d="M154,77 C154,103.613714 140.498286,127.075143 119.969143,140.906857 C115.17,144.137714 109.987429,146.843714 104.506286,148.943143 C95.964,152.208571 86.6925714,154 77,154 C65.736,154 55.0345714,151.58 45.3922857,147.236571 C40.1751429,144.882571 35.2628571,141.966 30.7402857,138.562286 C12.0717143,124.510571 0,102.164857 0,77 C0,69.0894286 1.19114286,61.4585714 3.40685714,54.2771429 C13.1025714,22.8422857 42.3845714,0 77,0 C111.615429,0 140.897429,22.8422857 150.593143,54.2771429 C152.808857,61.4585714 154,69.0894286 154,77 Z" id="Path" fill="#FFFFFF"></path>
                            <ellipse id="Oval" fill="#B57AD2" cx="115.393457" cy="84.5856" rx="19.8842286" ry="8.19122857"></ellipse>
                            <path d="M143.810857,95.722 C143.518886,97.2733143 142.827771,98.7155714 141.724,99.8517143 C140.648829,100.958314 139.305886,101.771686 137.910771,102.410314 C134.776086,103.845343 131.334971,104.5638 127.949171,105.116629 C124.4166,105.693343 120.847886,106.045029 117.280429,106.320657 C113.688143,106.598171 110.092086,106.824457 106.493514,107.005171 C99.3111429,107.365971 92.1243714,107.6152 84.9435714,108.017486 C77.8492,108.415057 70.7391143,108.904714 63.7173429,110.033 C60.346,110.574829 56.9536,111.244571 53.7513429,112.458343 C52.3119143,113.003943 50.6873714,113.665829 49.6084286,114.805743 C49.2127429,115.223743 49.0826286,115.5462 49.2237429,116.107514 C49.3940857,116.785114 49.7511143,117.417771 50.1238571,118.002343 C51.0274286,119.418829 52.1846286,120.671886 53.3786,121.846686 C53.7174,122.180143 54.0624857,122.506057 54.4122857,122.827886 C54.6062,123.0064 54.7105429,123.051343 54.9566286,123.156314 C56.4089429,123.7764 58.0297143,124.012114 59.5857429,124.211057 C61.2995429,124.430114 63.0240286,124.558343 64.7488286,124.655771 C67.8002286,124.827686 70.8588571,124.884257 73.9134,124.972257 C80.7836857,125.170571 87.6712571,125.416343 94.4692571,126.499371 C100.9954,127.539029 107.616457,129.458057 113.019657,133.391971 C115.678514,135.327657 117.997629,137.731314 119.738771,140.527514 C119.787486,140.606086 119.835571,140.684971 119.883343,140.763857 C119.9726,140.911886 119.970714,140.847457 119.873914,140.970657 C119.774914,141.096686 119.536371,141.196 119.398714,141.287143 C119.0332,141.528514 118.665486,141.766743 118.2962,142.001829 C117.604457,142.441829 116.9058,142.870829 116.200543,143.288829 C114.786257,144.126714 113.345257,144.919029 111.880371,145.664829 C110.374943,146.431057 108.844686,147.147629 107.292114,147.813286 C106.5482,148.131971 105.799571,148.439029 105.045914,148.734457 C104.9026,148.790714 104.578571,148.973629 104.484914,148.892857 C104.372714,148.796057 104.295714,148.476429 104.223114,148.339714 C104.038314,147.990857 103.827114,147.654257 103.591714,147.337143 C101.722971,144.818771 98.6153143,143.305171 95.7650571,142.197943 C92.5590286,140.952429 89.2093714,140.121457 85.8402286,139.456429 C82.3573143,138.769086 78.8454857,138.257114 75.3248571,137.809257 C71.8633143,137.368943 68.3967429,136.967914 64.9380286,136.504657 C61.5487714,136.050829 58.1406571,135.546714 54.8469429,134.604486 C52.1107714,133.821914 49.3940857,132.681057 47.3339429,130.662714 C46.8260571,130.1652 46.3609143,129.613314 45.8976571,129.074943 C44.7951429,127.794543 43.7514,126.458514 42.8274,125.042657 C41.1425143,122.461114 39.7892,119.506514 39.7285429,116.374029 C39.6631714,112.992943 41.2603714,109.912629 43.8714571,107.811 C46.4665143,105.722257 49.7416857,104.588943 52.9423714,103.818943 C56.298,103.011543 59.7403714,102.552371 63.173,102.226143 C70.2390857,101.554829 77.363,101.445457 84.4561143,101.377886 C91.6479143,101.309057 98.8397143,101.342057 106.0312,101.225457 C113.134057,101.110429 120.285,100.929714 127.326257,99.9133143 C129.053257,99.6640857 130.775857,99.3576571 132.467029,98.9252 C134.042857,98.5222857 135.651371,98.0326286 137.049943,97.1815429 C137.649914,96.8163429 138.262143,96.3681714 138.600943,95.7361429 C138.918371,95.1437143 139.071429,94.3668 138.977771,93.7011429 C138.770971,92.2284 137.334057,91.2223714 136.1382,90.5463429 C134.719829,89.7442857 133.165371,89.199 131.601486,88.7596286 C131.467286,88.7219143 129.746257,88.1948571 129.689371,88.3208857 C129.689371,88.0735429 129.7978,87.7869143 129.848714,87.5471143 C129.967514,86.9883143 130.087886,86.4298286 130.208571,85.8716571 C130.327057,85.3248 130.445857,84.7782571 130.567171,84.2317143 C130.575971,84.1914857 130.707343,83.4714571 130.742229,83.4714571 C130.746943,83.5739143 132.130114,83.8306857 132.257714,83.8630571 C133.749,84.2395714 135.222057,84.7138286 136.635714,85.3210286 C139.228886,86.4348571 141.802886,88.0792 143.130743,90.6604286 C143.932171,92.2155143 144.154686,94.0100857 143.810857,95.722 Z" id="Path" fill="#B57AD2"></path>
                            <path d="M150.593143,54.2771429 L3.40685714,54.2771429 C13.1025714,22.8422857 42.3845714,0 77,0 C111.615429,0 140.897429,22.8422857 150.593143,54.2771429 Z" id="Path" fill="#F0E3F7"></path>
                            <g id="Group" transform="translate(1.965326, 39.942571)">
                                <path d="M71.9892452,57.8222857 L43.4269595,107.294 C38.2098167,104.94 33.2975309,102.023429 28.7749595,98.6197143 L5.22238808,57.8222857 C-3.98932621,41.866 -0.334183349,23.4362857 10.8638167,11.7511429 C17.7026738,4.61685714 27.3543881,0 38.6058167,0 C68.2806738,0 86.8266738,32.1231429 71.9892452,57.8222857 Z" id="Path" fill="#B57AD2"></path>
                                <path d="M58.6874167,38.5468286 C58.6874167,48.0046286 52.1490167,55.9337429 43.3465024,58.0646 C41.8263024,58.4367143 40.2369595,58.6306286 38.6036167,58.6306286 C27.5165595,58.6306286 18.5235881,49.6379714 18.5235881,38.5468286 C18.5235881,27.4594571 27.5162452,18.4668 38.6036167,18.4668 C40.2372738,18.4668 41.8263024,18.6610286 43.3465024,19.0328286 C52.1493309,21.164 58.6874167,29.0931143 58.6874167,38.5468286 Z" id="Path" fill="#F0E3F7"></path>
                                <path d="M58.6874167,38.5468286 C58.6874167,48.0046286 52.1490167,55.9337429 43.3465024,58.0646 C34.5439881,55.9337429 28.0096738,48.0043143 28.0096738,38.5468286 C28.0096738,29.0931143 34.5439881,21.164 43.3465024,19.0331429 C52.1493309,21.164 58.6874167,29.0931143 58.6874167,38.5468286 Z" id="Path" fill="#FFFFFF"></path>
                            </g>
                            <g id="Group" transform="translate(87.057143, 0.000000)">
                                <path d="M28.3363143,84.5856 L52.7541143,42.2928 C63.6064,23.496 50.0412,0.000314285714 28.3363143,0.000314285714 L28.3363143,0.000314285714 C6.63174286,0.000314285714 -6.93377143,23.4963143 3.91851429,42.2928 L28.3363143,84.5856 Z" id="Path" fill="#B57AD2"></path>
                                <path d="M43.0247714,28.1942571 C43.0247714,35.112 38.2426,40.9115143 31.8041429,42.4700571 C30.6922,42.7422286 29.5299714,42.8839714 28.3350571,42.8839714 C20.2255429,42.8839714 13.6481714,36.3066 13.6481714,28.1939429 C13.6481714,20.0844286 20.2255429,13.5070571 28.3350571,13.5070571 C29.5299714,13.5070571 30.6922,13.6491143 31.8041429,13.9209714 C38.2426,15.4798286 43.0247714,21.2796571 43.0247714,28.1942571 Z" id="Path" fill="#F0E3F7"></path>
                                <path d="M43.0247714,28.1942571 C43.0247714,35.112 38.2426,40.9115143 31.8041429,42.4700571 C25.3656857,40.9115143 20.5863429,35.1116857 20.5863429,28.1942571 C20.5863429,21.2796571 25.3656857,15.4798286 31.8041429,13.9212857 C38.2426,15.4798286 43.0247714,21.2796571 43.0247714,28.1942571 Z" id="Path" fill="#FFFFFF"></path>
                            </g>
                        </g>
                    </g>
                </g>
            </g>
        </g>
    </g>
</svg>