<?xml version="1.0" encoding="UTF-8"?>
<svg width="154px" height="154px" viewBox="0 0 154 154" version="1.1" xmlns="http://www.w3.org/2000/svg" xmlns:xlink="http://www.w3.org/1999/xlink">
    <title>reputation</title>
    <g id="Page-1" stroke="none" stroke-width="1" fill="none" fill-rule="evenodd">
        <g id="Landing-Page" transform="translate(-723.000000, -2941.000000)" fill="#B57AD2" fill-rule="nonzero">
            <g id="Secret-Sauce" transform="translate(251.000000, 2730.000000)">
                <g id="3-Features" transform="translate(0.000000, 175.000000)">
                    <g id="Feature-2" transform="translate(375.000000, 0.000000)">
                        <g id="reputation" transform="translate(96.999892, 36.211750)">
                            <path d="M81.4297134,101.893559 L72.5699009,101.893559 C46.5147251,101.893559 25.3168658,123.090816 25.3168658,149.146594 C25.3168658,151.593148 27.3002173,153.5765 29.746772,153.5765 L124.252842,153.5765 C126.699397,153.5765 128.682749,151.592848 128.682749,149.146293 C128.682749,123.091117 107.485491,101.893559 81.4297134,101.893559 Z" id="Path"></path>
                            <path d="M76.9998072,101.893559 L72.5699009,101.893559 C46.5147251,101.893559 25.3168658,123.090816 25.3168658,149.146594 C25.3168658,151.593148 27.3002173,153.5765 29.746772,153.5765 L76.9998072,153.5765 L76.9998072,101.893559 Z" id="Path"></path>
                            <path d="M76.9998072,53.1618828 C61.5294243,53.1618828 48.9432329,65.7480742 48.9432329,81.218457 L48.9432329,82.6973984 C48.9432329,98.1677813 61.5294243,110.753973 76.9998072,110.753973 C92.47019,110.753973 105.056381,98.1677813 105.056381,82.6973984 L105.056381,81.218457 C105.056381,65.7480742 92.47019,53.1618828 76.9998072,53.1618828 Z" id="Path"></path>
                            <path d="M48.9435337,81.2181563 L48.9435337,82.6970977 C48.9435337,98.1674805 61.5297251,110.753672 77.0001079,110.753672 L77.0001079,53.1618828 C61.5294243,53.1618828 48.9435337,65.7480742 48.9435337,81.2181563 Z" id="Path"></path>
                            <path d="M97.7419829,14.3072617 L87.0907173,10.9508437 L80.6067759,1.85792578 C79.7757173,0.692398437 78.4318267,0 76.9998072,0 C75.5677876,0 74.2241978,0.692398437 73.3928384,1.85792578 L66.9091978,10.9508437 L56.2582329,14.3072617 C54.8923853,14.7379805 53.8191978,15.8018437 53.3764478,17.1637812 C52.9339986,18.5251172 53.1770298,20.017293 54.0288423,21.168082 L60.6731001,30.1442969 L60.5738423,41.3117031 C60.5612095,42.7434219 61.2412759,44.0930273 62.3998853,44.9352148 C63.1665767,45.4922617 64.0800493,45.7813055 65.0040493,45.7813055 C65.4762759,45.7813055 65.9509087,45.7055156 66.4102017,45.5518164 L77.0001079,42.0065078 L87.5900142,45.5515156 C88.9480415,46.0071992 90.4417212,45.7768008 91.6000298,44.9346133 C92.7586392,44.0930273 93.4390064,42.7431211 93.4260728,41.3111016 L93.326815,30.1436953 L99.9710728,21.1677812 C100.823186,20.0169922 101.065917,18.5251172 100.623467,17.1631797 C100.181319,15.8012422 99.1078306,14.7373789 97.7419829,14.3072617 Z" id="Path"></path>
                            <path d="M73.3928384,1.85792578 L66.9091978,10.9508438 L56.2582329,14.3072617 C54.8923853,14.7379805 53.8191978,15.8018438 53.3764478,17.1637812 C52.9339986,18.5251172 53.1770298,20.017293 54.0288423,21.168082 L60.6731001,30.1442969 L60.5738423,41.3117031 C60.5612095,42.7434219 61.2412759,44.0930273 62.3998853,44.9352148 C63.1665767,45.4922617 64.0800493,45.7810117 65.0040493,45.7810117 C65.4762759,45.7810117 65.9509087,45.7055156 66.4102017,45.5518164 L77.0001079,42.0065078 L77.0001079,0 C75.5680884,0 74.2241978,0.691796875 73.3928384,1.85792578 Z" id="Path"></path>
                            <path d="M153.782944,30.4553047 C153.340495,29.093668 152.267006,28.0295039 150.901159,27.5990859 L140.250194,24.2429687 L133.766553,15.1500508 C132.935495,13.9845234 131.591604,13.292125 130.159585,13.292125 C128.727565,13.292125 127.383975,13.9845234 126.552616,15.1500508 L120.068975,24.2429687 L109.41801,27.5990859 C108.052163,28.0295039 106.978674,29.0933672 106.536225,30.4553047 C106.093475,31.8169414 106.336506,33.3091172 107.18862,34.4599062 L113.832877,43.4361211 L113.73362,54.6035273 C113.720686,56.0355469 114.401053,57.3851523 115.559362,58.2270391 C116.718272,59.0692266 118.211651,59.2978203 119.569678,58.8442422 L130.159585,55.2992344 L140.749491,58.8442422 C141.208784,58.9982422 141.683417,59.0731367 142.155643,59.0731367 C143.079342,59.0731367 143.993116,58.7840859 144.759807,58.2270391 C145.918116,57.3854531 146.598483,56.0355469 146.585549,54.6035273 L146.486292,43.4361211 L153.130549,34.4599062 C153.982663,33.3091172 154.225694,31.8169414 153.782944,30.4553047 Z" id="Path"></path>
                            <path d="M44.5822056,27.5990859 L33.9312408,24.2429687 L27.4469986,15.1500508 C26.6156392,13.9845234 25.2720493,13.292125 23.8400298,13.292125 C22.4080103,13.292125 21.0644204,13.9845234 20.2330611,15.1500508 L13.7497212,24.2429687 L3.0984556,27.5990859 C1.73260794,28.0295039 0.659420442,29.0933672 0.216971223,30.4553047 C-0.225778777,31.8169414 0.0175532545,33.3091172 0.869365754,34.4599062 L7.51362357,43.4361211 L7.41436575,54.6035273 C7.40173294,56.0352461 8.08179935,57.3848516 9.24040872,58.2267383 C10.3990181,59.0689258 11.8929986,59.2978203 13.2507251,58.8439414 L23.8406314,55.2989336 L34.4305376,58.8439414 C34.8898306,58.9979414 35.3644634,59.0728493 35.83669,59.0728493 C36.7603892,59.0728493 37.6741626,58.7837852 38.440854,58.2267383 C39.5991626,57.3851523 40.2795298,56.0352461 40.266897,54.6035273 L40.1676392,43.4361211 L46.811897,34.4599062 C47.6637095,33.309418 47.9070415,31.8172422 47.4642915,30.4553047 C47.0212408,29.0933672 45.9477525,28.0295039 44.5822056,27.5990859 Z" id="Path"></path>
                        </g>
                    </g>
                </g>
            </g>
        </g>
    </g>
</svg>